<svg width="1920" height="3086" viewBox="0 0 1920 3086" fill="none" xmlns="http://www.w3.org/2000/svg">
<g clip-path="url(#clip0_1_3)">
<path d="M1920 0H0V3086H1920V0Z" fill="white"/>
<path d="M1920 589H0V1594H1920V589Z" fill="#FFD707"/>
<path d="M1920 1837H0V3011H1920V1837Z" fill="#FFD707"/>
<path d="M1920 623.445C1795.47 744.546 1671.76 797.325 1584 823.246C1227.37 928.562 959.347 739.467 449.333 773.822C254.467 786.946 98.8667 827.673 0 859C0 560.004 0 260.996 0 -38H1920C1920 182.485 1920 402.96 1920 623.445Z" fill="#000FA0" stroke="black" stroke-miterlimit="10"/>
<path d="M-5.6144e-05 1585.42C124.533 1481.87 248.24 1436.74 336 1414.57C692.627 1324.52 960.653 1486.21 1470.67 1456.83C1665.53 1445.61 1821.13 1410.79 1920 1384C1920 1639.66 1920 1895.34 1920 2151H-0.00012207C-0.000100094 1962.47 -7.812e-05 1773.95 -5.6144e-05 1585.42Z" fill="#000FA0" stroke="black" stroke-miterlimit="10"/>
<path d="M-5.6144e-05 3009.42C124.533 2905.87 248.24 2860.74 336 2838.57C692.627 2748.52 960.653 2910.21 1470.67 2880.83C1665.53 2869.61 1821.13 2834.79 1920 2808C1920 3063.66 1920 3319.34 1920 3575H-0.00012207C-0.000100094 3386.47 -7.812e-05 3197.95 -5.6144e-05 3009.42Z" fill="#000FA0" stroke="black" stroke-miterlimit="10"/>
<path d="M1920 2152.58C1795.47 2256.13 1671.76 2301.26 1584 2323.43C1227.37 2413.48 959.347 2251.79 449.333 2281.17C254.467 2292.39 98.8667 2327.21 0 2354C0 2098.34 0 1842.66 0 1587H1920C1920 1775.53 1920 1964.05 1920 2152.58Z" fill="#000FA0"/>
</g>
<defs>
<clipPath id="clip0_1_3">
<rect width="1920" height="3086" fill="white"/>
</clipPath>
</defs>
</svg>
