<svg width="1443" height="1024" viewBox="0 0 1443 1024" fill="none" xmlns="http://www.w3.org/2000/svg">
<g clip-path="url(#clip0_30_81)">
<path d="M1444 0H4V1024H1444V0Z" fill="#000FA0"/>
<path d="M1442 623C1348.6 738.16 1255.82 788.35 1190 813C922.53 913.15 721.51 733.33 339 766C192.85 778.48 76.15 817.21 2 847C2 676.33 2 505.67 2 335C43.57 287.77 111.52 224.47 210 189C309.3 153.23 388.73 164.09 614 202C1013.53 269.23 1086.5 289.39 1195 257C1311.44 222.24 1393.32 149.5 1444 94C1443.33 270.33 1442.67 446.67 1442 623Z" fill="#FFD707"/>
</g>
<defs>
<clipPath id="clip0_30_81">
<rect width="1443" height="1024" fill="white"/>
</clipPath>
</defs>
</svg>
