<svg width="390" height="1024" viewBox="0 0 390 1024" fill="none" xmlns="http://www.w3.org/2000/svg">
<g clip-path="url(#clip0_331_6)">
<rect width="390" height="1024" fill="white"/>
<rect y="631" width="390" height="329" fill="#FFD707"/>
<path d="M389 634.45C363.769 667.122 338.706 681.361 320.925 688.354C248.671 716.767 194.368 665.751 91.0368 675.02C51.556 678.561 20.0308 689.548 0 698C0 617.334 0 536.666 0 456L389 456C389 515.484 389 574.966 389 634.45Z" fill="#000FA0"/>
<rect y="180" width="390" height="272" fill="#FFD707"/>
<path d="M389 178.45C363.769 211.122 338.706 225.361 320.925 232.354C248.671 260.767 194.368 209.751 91.0368 219.02C51.556 222.561 20.0308 233.548 0 242C0 161.334 0 80.6657 0 0H389C389 59.4843 389 118.966 389 178.45Z" fill="#000FA0"/>
<path d="M1.56651e-05 453.812C25.2959 421.006 50.4238 406.708 68.25 399.686C140.69 371.155 195.133 422.382 298.729 413.075C338.311 409.52 369.918 398.486 390 390C390 470.999 390 552.001 390 633L0 633C5.22177e-06 573.27 1.04433e-05 513.543 1.56651e-05 453.812Z" fill="#000FA0"/>
<path d="M0.999967 956.359C26.2958 928.413 51.4237 916.233 69.25 910.251C141.69 885.947 196.133 929.585 299.729 921.657C339.311 918.628 370.918 909.229 391 902C391 970.999 391 1040 391 1109L0.999954 1109C0.999958 1058.12 0.999962 1007.24 0.999967 956.359Z" fill="#000FA0"/>
</g>
<defs>
<clipPath id="clip0_331_6">
<rect width="390" height="1024" fill="white"/>
</clipPath>
</defs>
</svg>
