<svg width="1440" height="3086" viewBox="0 0 1440 3086" fill="none" xmlns="http://www.w3.org/2000/svg">
<g clip-path="url(#clip0_41_221)">
<path d="M1440 0H0V3086H1440V0Z" fill="white"/>
<path d="M1440 589H0V1594H1440V589Z" fill="#FFD707"/>
<path d="M1440 1837H0V3011H1440V1837Z" fill="#FFD707"/>
<path d="M1440 623.445C1346.6 744.546 1253.82 797.325 1188 823.246C920.53 928.562 719.51 739.467 337 773.822C190.85 786.946 74.15 827.673 0 859C0 560.004 0 260.996 0 -38H1440C1440 182.485 1440 402.96 1440 623.445Z" fill="#000FA0" stroke="black" stroke-miterlimit="10"/>
<path d="M-7.26253e-05 1585.42C93.4 1481.87 186.18 1436.74 252 1414.57C519.47 1324.52 720.49 1486.21 1103 1456.83C1249.15 1445.61 1365.85 1410.79 1440 1384C1440 1639.66 1440 1895.34 1440 2151H-0.00012207C-0.000105588 1962.47 -8.91073e-05 1773.95 -7.26253e-05 1585.42Z" fill="#000FA0" stroke="black" stroke-miterlimit="10"/>
<path d="M-7.26253e-05 3009.42C93.4 2905.87 186.18 2860.74 252 2838.57C519.47 2748.52 720.49 2910.21 1103 2880.83C1249.15 2869.61 1365.85 2834.79 1440 2808C1440 3063.66 1440 3319.34 1440 3575H-0.00012207C-0.000105588 3386.47 -8.91073e-05 3197.95 -7.26253e-05 3009.42Z" fill="#000FA0" stroke="black" stroke-miterlimit="10"/>
<path d="M1440 2152.58C1346.6 2256.13 1253.82 2301.26 1188 2323.43C920.53 2413.48 719.51 2251.79 337 2281.17C190.85 2292.39 74.15 2327.21 0 2354C0 2098.34 0 1842.66 0 1587H1440C1440 1775.53 1440 1964.05 1440 2152.58Z" fill="#000FA0"/>
</g>
<defs>
<clipPath id="clip0_41_221">
<rect width="1440" height="3086" fill="white"/>
</clipPath>
</defs>
</svg>
