<?xml version="1.0" encoding="utf-8"?>
<!-- Generator: Adobe Illustrator 26.5.0, SVG Export Plug-In . SVG Version: 6.00 Build 0)  -->
<svg version="1.1" id="Lager_1" xmlns="http://www.w3.org/2000/svg" xmlns:xlink="http://www.w3.org/1999/xlink" x="0px" y="0px"
	 viewBox="0 0 2048 2048" style="enable-background:new 0 0 2048 2048;" xml:space="preserve">
<style type="text/css">
	.st0{fill-rule:evenodd;clip-rule:evenodd;fill:#010202;}
	.st1{fill-rule:evenodd;clip-rule:evenodd;fill:#E3211E;}
	.st2{fill-rule:evenodd;clip-rule:evenodd;fill:#FFD703;}
	.st3{fill-rule:evenodd;clip-rule:evenodd;fill:#FBD15C;}
</style>
<g>
	<path class="st0" d="M1019.58,2039.4c-44.9,0-91.7-4.25-139.09-12.63c-69.6-12.22-134.71-35.32-193.49-68.64
		c-129.08-72.75-238.12-189.18-315.29-336.7c-36.56-69.89-64.89-144.8-84.18-222.66c-19.34-78.05-29.15-157.22-29.15-235.31
		c0-94.54,18.12-189.95,53.87-283.56c31.18-81.67,75.65-161.88,132.18-238.39l28.91-39.14l4.92,48.81
		c7.2,71.43,17.98,126.96,32.96,169.76c7.87,22.48,16.89,41.15,27,55.91c-10.37-189.68,36.47-357.5,139.53-499.45
		C785.38,229.12,953.76,110,1178.21,23.34L1238.65,0l-38.66,52.98c-157.98,216.49-37.68,442.75,89.67,682.3
		c66.85,125.75,135.66,255.18,160.44,383.57c46.57-107.19,72.19-242.36,78.07-410.83l2.22-63.64l32.7,54.17
		c44.39,73.55,78.94,154.84,102.69,241.63c22.87,83.58,35.35,170.77,37.1,259.17c1.73,87.2-7.02,173.44-25.99,256.32
		c-19.23,84.02-48.51,162.48-87.02,233.2c-28.36,52.07-61.64,99.63-98.92,141.34c-38.71,43.3-82.04,80.64-128.78,110.97
		c-100.43,65.16-215.65,98.21-342.48,98.23C1019.65,2039.4,1019.61,2039.4,1019.58,2039.4z"/>
	<path class="st1" d="M561.03,925.3c-44.37-420.12,188.02-715.61,623.83-883.88c-266.86,365.69,227.51,761.82,254.81,1141.53
		c63.89-115.13,100.19-268.76,107.35-474.23c326.78,541.37,55.81,1426.22-663.33,1299.01c-66.03-11.59-129.62-33.65-187.56-66.5
		c-262.28-147.82-418.89-470.04-418.89-777.76c0-196.13,79.45-371.17,182.22-510.3C473.2,789.39,502.48,891,561.03,925.3
		L561.03,925.3z"/>
	<path class="st2" d="M937.54,898.01c1.52,375.19,351.49,423.02,286.68,823.5c59.78-71.5,89.97-185.83,95.31-276.16
		c94.85,229.3,20.43,412.71-114.82,506.11c-411.26,284.05-765.34-291.78-529.9-607.4c7.17,70.53,88.9,179.38,119.09,196.94
		C793.89,1540.99,730,1012.5,937.54,898.01z"/>
</g>
<path class="st3" d="M-349.18,436.64"/>
</svg>
