<svg width="105" height="99" viewBox="0 0 105 99" fill="none" xmlns="http://www.w3.org/2000/svg">
<g clip-path="url(#clip0_17_269)">
<path d="M87.6756 73.5429C87.3575 73.6048 87.0394 73.6667 86.7213 73.7286C86.6748 73.5738 86.6282 73.4268 86.5739 73.272C86.6127 73.4268 86.6593 73.5816 86.698 73.7364C83.9671 76.0814 81.2362 78.4264 78.513 80.7792C75.0916 81.3751 70.8555 80.9339 68.4116 82.7604C61.6463 87.8219 53.6785 87.6207 46.0753 89.1531C46.5331 88.8281 46.9986 88.4953 47.4563 88.1702C46.8589 88.3327 46.2693 88.4953 45.6719 88.65C36.0903 87.8993 26.7337 86.6069 19.728 79.1229C16.9427 76.151 14.0101 73.3107 11.1472 70.4085C6.49997 74.8663 14.6462 76.9405 13.1954 80.8024C10.8602 77.2655 8.5249 73.7364 6.18964 70.1995C15.2747 69.0463 6.70944 65.703 6.81806 63.5669C7.24477 55.487 6.86461 47.3685 6.78703 39.2577C7.46976 37.8259 8.14474 36.3864 8.82747 34.9546C14.0178 34.4825 20.9072 37.6479 23.2968 30.9611C24.0416 28.887 24.5459 27.0296 26.1053 27.4862C29.5733 28.5078 29.2397 26.7277 29.1544 24.6768C29.4026 23.1522 33.1189 22.1847 29.9224 20.1183C31.125 19.3212 32.3353 18.5163 33.5378 17.7191C33.1344 18.733 32.731 19.7469 32.3275 20.7607C33.437 21.7513 34.5542 22.7342 35.6636 23.7249C37.0834 22.0919 38.5032 20.4589 39.9152 18.8259C39.5505 18.7562 39.1781 18.6866 38.8135 18.6169C39.31 18.2841 39.8066 17.9591 40.3031 17.6263C41.3815 17.8972 42.4599 18.1758 43.5383 18.4466C42.7703 19.7623 42.0099 21.0703 41.2419 22.386C41.4048 24.8084 41.5677 27.2385 41.7306 29.6609C42.8323 29.1966 43.9418 28.7322 45.0435 28.2756L45.0667 28.2524L45.4314 28.2292L45.7883 28.2833C46.3003 28.9102 46.8201 29.5294 47.3322 30.1562C48.0382 30.0402 48.7442 29.9318 49.458 29.8157C49.4967 30.0402 49.5511 30.2569 49.6364 30.4736C49.8459 30.8063 50.0554 31.1391 50.2648 31.4642C50.2959 31.1391 50.3269 30.8218 50.3657 30.4968C50.4433 30.0324 50.5209 29.5758 50.5907 29.1114C50.7924 28.9566 51.0019 28.8019 51.2036 28.6393C51.6458 28.4846 52.0803 28.3298 52.5225 28.175C52.1268 28.0666 51.7312 27.9505 51.3355 27.8422C49.9467 28.2988 48.558 28.7632 47.177 29.2198C46.9055 28.4768 46.6417 27.7338 46.3701 26.9909C46.44 26.6503 46.5098 26.3175 46.5796 25.9847C46.8744 25.5436 47.1692 25.0947 47.4641 24.6536C53.0578 29.2894 48.2554 21.7204 50.389 22.2931C52.1113 23.2992 53.8414 24.3053 55.5638 25.3037C55.3388 25.7835 55.106 26.2634 54.881 26.7432C55.1603 27.9815 55.4474 29.2198 55.7267 30.4581C54.9974 32.8263 54.2526 35.1945 53.6087 37.586C53.5854 37.6634 54.9198 38.3677 55.1836 38.1819C55.75 37.7872 56.037 36.9978 56.4405 36.3709L56.4172 36.4019C57.9689 38.329 59.5128 40.2561 61.0644 42.1832C61.4136 41.7575 61.7549 41.3241 62.1041 40.8984C62.298 40.7127 62.4842 40.5269 62.6782 40.3412C63.423 41.951 63.8342 44.1412 66.4798 42.3689C66.2625 43.8858 65.3626 46.3314 65.9677 46.7571C67.7987 48.0496 70.3202 50.9286 72.2753 46.6565C73.5864 45.2247 74.8898 43.7929 76.201 42.3612C76.9303 44.5591 77.6596 46.7571 78.3811 48.9628C72.8727 50.2785 80.5922 51.4007 78.4354 52.6699C74.9286 54.9298 71.4219 57.1974 67.9151 59.4573C69.1331 59.883 70.3434 60.3086 71.5615 60.7343C70.902 61.1987 70.2426 61.6708 69.5831 62.1351C70.4908 62.1274 71.4063 62.1196 72.3141 62.1119C71.8408 63.6907 70.84 65.3547 71.096 66.8097C71.2512 67.6842 73.7183 69.0928 74.5407 68.7755C77.8613 67.4907 83.1913 66.5078 77.6751 61.4618V61.4541C78.1716 59.4883 78.6682 57.5302 79.1647 55.5644C79.9095 55.34 80.662 55.1156 81.4068 54.8911C82.3844 58.1184 82.9818 54.8447 83.7654 54.7596C85.4257 54.7131 85.4024 59.4496 88.1799 56.2378C90.4531 57.7856 95.8064 54.8756 95.0848 60.7575C88.6454 61.4231 96.7606 64.4182 94.2469 65.7107C93.7737 65.7958 93.3082 65.881 92.8349 65.9584C91.5703 66.1983 90.3057 66.4382 89.0411 66.6781C88.6143 66.593 88.1876 66.5078 87.7609 66.415C87.792 66.6239 87.8152 66.8329 87.8463 67.0496C88.2342 66.9103 88.6221 66.771 89.01 66.6317C89.5454 67.8932 90.0729 69.147 90.6083 70.4085C90.3755 70.6639 90.1505 70.927 89.9178 71.1824C88.9945 70.718 88.079 70.2614 87.1558 69.7971C87.311 71.0508 87.4972 72.2969 87.6756 73.5429ZM49.458 69.7351C49.5045 69.9131 49.5278 70.0989 49.5278 70.2846C49.1088 70.4859 48.6899 70.6871 48.2709 70.8883C48.0149 70.8651 47.7589 70.8341 47.5029 70.8109C47.6037 70.9889 47.7123 71.1592 47.8132 71.3372C46.0288 75.0521 43.1582 76.6154 38.9687 75.5396C38.6195 74.8586 38.2782 74.1775 37.9291 73.4887C37.5799 73.7209 37.2308 73.9608 36.8739 74.193C37.5877 74.6264 38.3014 75.0598 39.0152 75.4932C37.7041 75.9189 36.3929 76.3368 35.0817 76.7624C34.6162 76.8244 34.1585 76.8785 33.693 76.9405C33.0568 77.3584 32.4284 77.7686 31.7922 78.1865C30.5664 77.784 29.2785 76.9172 28.1147 77.0488C23.4054 77.5983 26.8191 79.2236 27.9441 79.9975C39.4807 87.9535 50.9088 86.6146 62.2282 79.4403C62.8721 79.0378 64.2143 79.2468 64.4626 78.7824C65.0678 77.637 65.2229 76.2671 65.5643 74.9901C63.8962 75.4235 61.7239 75.3539 60.661 76.3755C56.9525 79.9665 54.1518 74.9824 50.8545 75.7486C51.2657 75.2378 51.6768 74.727 52.088 74.2162C52.3053 73.7519 52.5303 73.2875 52.7475 72.8231C52.3596 73.1482 51.9794 73.4732 51.5915 73.7983C50.9631 72.6761 50.3424 71.5616 49.714 70.4394C49.7683 70.0757 49.8226 69.7119 49.8692 69.3482C49.6054 69.3017 49.3493 69.263 49.0856 69.2166C49.2097 69.3946 49.3338 69.5649 49.458 69.7351ZM73.8502 79.9511C73.8968 79.8659 73.9511 79.7885 73.9976 79.7034C73.9433 79.7808 73.889 79.8582 73.8347 79.9356C73.7416 80.1213 73.6562 80.3071 73.5632 80.4851C73.6562 80.3071 73.7571 80.1291 73.8502 79.9511ZM64.6566 44.4198C64.5557 44.5591 64.4471 44.6984 64.3462 44.8377C64.4936 44.7449 64.6488 44.652 64.7962 44.5514C64.8971 44.4121 64.9902 44.2728 65.091 44.1412C64.9436 44.2341 64.804 44.3269 64.6566 44.4198ZM57.3017 69.472C57.1387 69.3946 56.9758 69.325 56.8129 69.2476C56.8905 69.4024 56.968 69.5571 57.0534 69.7197C57.0224 69.9131 57.0456 70.1066 57.1077 70.2924C56.1457 70.7722 55.1914 71.2521 54.2293 71.7319C54.6405 72.204 55.0595 72.6838 55.4707 73.1559C56.0603 72.2349 56.6422 71.314 57.2318 70.3852C57.2551 70.0834 57.2784 69.7738 57.3017 69.472ZM57.1775 56.3616L57.131 56.2997C57.5344 56.973 57.9378 57.6386 58.3413 58.3119C58.4111 57.894 58.4809 57.4683 58.5507 57.0504C59.0938 56.5551 59.6447 56.0675 60.1878 55.5722C60.374 55.1775 60.5602 54.7905 60.7231 54.3958C60.7308 54.3803 60.5446 54.2952 60.4438 54.241C60.374 54.6976 60.3041 55.1543 60.2343 55.6109C59.1792 55.6496 58.1163 55.6883 57.0611 55.727C56.8672 55.9205 56.6732 56.1217 56.4793 56.3152C53.1354 56.5628 52.1268 63.505 47.2546 59.3567C47.0684 59.7127 46.8356 60.061 46.7193 60.4325C46.7037 60.4944 47.177 60.6956 47.4253 60.8349C48.3718 61.9649 49.0856 63.5359 50.3114 64.1474C53.0113 65.494 55.4784 59.2251 58.5663 63.6985C58.9852 63.0252 59.4042 62.3596 59.8231 61.6862C59.3188 61.4154 58.5663 61.2606 58.3568 60.8427C57.612 59.3645 57.0534 57.8011 56.4172 56.2687C56.6732 56.2997 56.9293 56.3306 57.1775 56.3616ZM61.7394 70.3233C61.817 70.3852 61.8868 70.4549 61.9644 70.5168C61.8791 70.4626 61.7937 70.4085 61.7084 70.3543C61.7084 70.0989 61.7084 69.8512 61.7084 69.5958C61.7549 69.5107 61.8015 69.4256 61.8403 69.3404C61.8092 69.441 61.7782 69.5339 61.7394 69.6345C60.8239 69.0076 59.9085 68.3885 58.993 67.7616C58.8999 68.7058 58.8068 69.65 58.7137 70.5942C59.7223 70.5091 60.7308 70.4162 61.7394 70.3233ZM20.2323 74.7657C22.6916 75.826 23.4364 76.4606 23.9485 76.3213C28.2777 75.0985 32.5603 73.7286 36.8584 72.3975C34.5231 70.4394 32.1879 68.4736 29.8526 66.5156C28.4871 70.4472 28.0527 75.1449 20.2323 74.7657ZM72.733 69.8512C72.283 70.3852 71.2589 71.3372 71.3753 71.4842C72.2132 72.591 73.1442 74.0924 74.308 74.3555C75.1226 74.5413 76.3562 72.9702 77.4035 72.1885C75.9527 71.461 74.5097 70.7413 72.733 69.8512ZM25.2054 65.9816C24.67 64.7975 24.3675 64.1087 24.0571 63.4276C22.9399 64.1009 21.8227 64.7665 20.7133 65.4398C21.6288 66.4305 22.5365 67.4211 23.452 68.4195C24.0416 67.6068 24.6235 66.8019 25.2054 65.9816ZM88.3351 65.0451C89.5376 64.751 90.4686 64.5188 91.3996 64.2944C90.8022 64.0003 90.1815 63.4276 89.6152 63.4663C88.754 63.5282 87.9239 64.0235 87.0782 64.3331C87.5515 64.5962 88.017 64.8671 88.3351 65.0451ZM57.9921 44.0174C56.743 43.4988 56.1301 43.0887 55.4862 43.0345C55.1216 43.0035 54.7104 43.5685 54.3224 43.8626C54.8267 44.1644 55.3 44.6443 55.8431 44.7139C56.3241 44.7836 56.8672 44.4121 57.9921 44.0174ZM86.1162 59.5579C85.511 58.7453 84.9679 58.0023 84.4171 57.2594C84.3705 57.685 84.1766 58.1726 84.3162 58.5363C84.6343 59.3567 85.1231 60.1074 85.542 60.8891C85.7205 60.4634 85.8989 60.0455 86.1162 59.5579ZM32.1336 67.5604C32.3973 67.9706 32.5835 68.2492 32.7697 68.5201C33.0335 68.3266 33.4602 68.1563 33.5068 67.9241C33.5533 67.661 33.243 67.3437 33.0956 67.0419C32.8008 67.1966 32.5215 67.3514 32.1336 67.5604ZM89.0876 60.951C89.5221 60.5718 89.8402 60.2932 90.1505 60.0146C89.8634 59.8985 89.5609 59.6585 89.2893 59.6972C88.9868 59.7359 88.7075 60.0146 88.4204 60.1926C88.6066 60.3938 88.785 60.6027 89.0876 60.951ZM54.8578 48.0109C54.594 47.6316 54.4 47.3608 54.2138 47.0899C53.9966 47.3221 53.6164 47.5388 53.5932 47.7864C53.5776 48.0573 53.888 48.3514 54.0587 48.6377C54.2992 48.4443 54.5474 48.2585 54.8578 48.0109ZM58.7059 48.2043C58.9542 47.8948 59.1637 47.6471 59.3654 47.3917C59.1016 47.2137 58.8068 46.85 58.5818 46.8887C58.2714 46.9506 58.0077 47.2988 57.7206 47.5233C58.0077 47.7245 58.3025 47.9257 58.7059 48.2043ZM67.566 67.5914C66.8987 67.5449 66.5496 67.4675 66.2238 67.514C66.0531 67.5372 65.9134 67.7926 65.766 67.9396C66.0143 68.0402 66.2858 68.2415 66.5108 68.2028C66.7901 68.1563 67.0384 67.9087 67.566 67.5914ZM49.4735 52.1437C49.3028 52.4532 49.1476 52.7318 48.9925 53.0182C49.1942 53.1188 49.5123 53.3433 49.5743 53.2891C49.8071 53.0801 49.9545 52.786 50.1329 52.5306C49.939 52.4223 49.7605 52.3139 49.4735 52.1437ZM35.2447 29.8621C35.1903 29.6687 35.1283 29.4829 35.074 29.2894C34.9111 29.4055 34.6473 29.4829 34.6007 29.63C34.5464 29.808 34.6783 30.0402 34.7326 30.2491C34.8955 30.133 35.0662 30.0092 35.2447 29.8621ZM61.4446 44.7062C61.2119 44.9693 60.9713 45.1241 60.9791 45.2557C61.0024 45.573 61.142 45.8825 61.2351 46.1921C61.3748 46.0606 61.6231 45.9367 61.6231 45.8052C61.6386 45.4956 61.53 45.1705 61.4446 44.7062ZM11.5662 35.8833C11.5041 35.7827 11.4343 35.6821 11.3722 35.5815C11.2869 35.7905 11.1705 35.984 11.1239 36.2007C11.1084 36.2858 11.2403 36.3941 11.3101 36.4948C11.3955 36.3013 11.4886 36.0923 11.5662 35.8833ZM68.3418 65.4863C68.1866 65.6178 67.9073 65.7339 67.8996 65.8732C67.884 66.0822 68.0625 66.2989 68.1556 66.5156C68.3883 66.3376 68.6133 66.1596 68.8461 65.9816C68.6909 65.819 68.528 65.6565 68.3418 65.4863ZM50.6993 38.685C50.4976 38.5225 50.3347 38.3986 50.1717 38.2671C50.0786 38.4451 49.9623 38.6076 49.9002 38.7933C49.8847 38.832 50.0864 39.01 50.1407 38.9946C50.3114 38.9481 50.4588 38.8243 50.6993 38.685ZM53.9113 27.8499C53.8414 27.788 53.7716 27.6719 53.7018 27.6719C53.632 27.6719 53.5544 27.7803 53.4845 27.8422C53.5544 27.9041 53.6242 28.0202 53.694 28.0202C53.7638 28.0202 53.8414 27.9118 53.9113 27.8499ZM59.8076 45.7897L59.9628 45.5807L59.699 45.5498L59.8076 45.7897ZM49.233 61.6862L49.1166 61.8565L49.3106 61.8797L49.233 61.6862Z" fill="#302B26"/>
<path d="M76.1855 42.3766C74.8743 43.8084 73.5709 45.2402 72.2597 46.672C70.3279 45.2402 68.3961 43.8162 66.4643 42.3844C63.8187 44.1567 63.4075 41.9665 62.6627 40.3567C62.6316 40.0626 62.6006 39.7762 62.5696 39.4821C62.9885 39.2577 63.4152 39.0255 63.8342 38.8011C63.9893 39.4357 64.1445 40.0703 64.2919 40.7049C64.4393 40.5579 64.7419 40.3412 64.7109 40.2793C64.4393 39.753 64.1135 39.25 63.8031 38.7392C64.61 37.6866 65.4169 36.6341 66.2237 35.5815C67.0229 36.1078 67.822 36.6341 68.6133 37.1603C69.2805 34.676 69.9555 32.1994 70.6227 29.7151C69.6529 29.5061 68.6831 29.2972 67.7133 29.0882C67.5349 29.1347 67.3487 29.1656 67.1703 29.1888C64.3928 29.4984 63.2911 21.287 59.3033 27.7106C58.3102 27.1689 57.3094 26.6271 56.3163 26.0776C56.6577 25.9461 56.9913 25.8145 57.3327 25.6829C57.5732 25.7526 57.8215 25.8222 58.062 25.8919C58.1473 26.0544 58.2404 26.2247 58.3257 26.3872C58.3025 26.1937 58.2714 26.0002 58.2482 25.8145C57.899 24.8703 57.5577 23.9184 57.2085 22.9742C57.131 23.7636 57.0611 24.5607 56.9835 25.3501C56.5103 25.3346 56.0293 25.3269 55.556 25.3114C53.8337 24.3053 52.1035 23.2992 50.3812 22.3008L50.3967 22.3782C50.1174 21.8674 49.8381 21.3644 49.5588 20.8536C49.295 20.8613 49.039 20.8613 48.7752 20.8691C49.5743 19.7623 50.3812 18.6556 51.1803 17.5489C47.5572 17.278 43.8875 11.0014 40.3109 17.6263C39.8143 17.9591 39.3178 18.2841 38.8212 18.6169C36.6567 19.3289 34.4998 20.0487 32.3353 20.7607C32.7387 19.7469 33.1421 18.733 33.5456 17.7192C35.361 15.3432 37.1765 12.9672 38.9997 10.5912C49.7062 5.0731 60.4903 0.62299 72.1899 8.19979C72.2442 8.54032 72.2985 8.88085 72.3528 9.22138C70.7003 11.876 67.597 14.5693 67.6668 17.1851C67.884 25.3811 77.9001 24.9245 81.4456 30.5045L81.3913 30.4503C85.4102 33.3758 81.9189 34.3277 79.9405 35.6744C79.6147 35.7595 79.281 35.8524 78.9552 35.9375C79.0328 36.0227 79.1724 36.1774 79.1802 36.1697C79.4285 35.9994 79.6535 35.806 79.894 35.6125C81.9499 35.6512 84.0059 35.6976 86.0541 35.7363C86.5584 35.8447 87.0549 35.9453 87.5592 36.0536C87.2489 35.8756 86.9385 35.6976 86.6282 35.5196C87.1868 31.619 86.1472 27.1921 90.4764 24.5452L90.5462 24.6923C90.5539 25.1876 90.5695 25.6829 90.5772 26.1782C92.6797 28.0357 94.4021 28.2756 95.3331 25.1257C96.2796 26.8206 97.2339 28.5078 98.1804 30.2027C98.1882 30.5355 98.1882 30.876 98.1959 31.2088L98.1494 31.1082C97.6683 31.4565 97.1873 31.8047 96.7141 32.153C95.6357 32.1143 94.5495 32.0756 93.4711 32.0292C93.7581 33.7163 94.0452 35.4035 94.3323 37.0984C96.1012 37.1139 97.8701 37.1294 99.6312 37.1449C100.073 38.1664 100.516 39.1803 100.95 40.2019C100.516 40.0935 100.081 39.9852 99.6467 39.8846C99.5303 39.5827 99.414 39.2887 99.2976 38.9868C99.2278 39.2654 99.158 39.544 99.0881 39.8149C98.8399 40.6276 98.5916 41.4402 98.3433 42.2606C97.9864 42.3225 97.6296 42.3844 97.2649 42.4463C97.0554 41.8891 96.846 41.3318 96.6365 40.7746C96.8925 40.0935 97.1485 39.4125 97.3968 38.7314C96.7761 39.3273 96.1555 39.9233 95.5426 40.5192C95.3874 40.8675 95.2322 41.208 95.0771 41.5563C94.5728 43.2744 94.0685 45.0003 93.5642 46.7184C92.4702 47.353 91.3763 47.9799 90.2901 48.6145C91.1824 48.4752 92.0746 48.3359 92.9668 48.1966C92.6875 48.7229 92.4082 49.2492 92.1289 49.7754C91.0893 50.9518 90.0419 52.1282 89.0023 53.2968C88.7462 54.1868 88.4902 55.0846 88.2342 55.9746L88.1721 56.2223C85.3946 59.4341 85.4257 54.6976 83.7576 54.7441C82.8266 52.3139 82.1051 53.5135 81.3991 54.8756C80.6543 55.1001 79.9017 55.3245 79.1569 55.549C78.9164 54.5816 78.6837 53.6141 78.4431 52.6545C80.6 51.3852 72.8727 50.263 78.3888 48.9473C79.4285 49.1176 80.4681 49.2879 81.5077 49.4581C81.6318 47.4769 82.5551 44.9925 81.6629 43.6459C80.7939 42.3302 78.0785 42.1677 76.17 41.5021C76.3639 40.7436 76.5656 39.9774 76.7596 39.219C76.5424 39.2654 76.3251 39.3196 76.1156 39.366L76.1777 39.3041C75.6889 39.4744 75.2079 39.6447 74.7191 39.8227C75.1846 40.4031 75.6501 40.9758 76.1156 41.5563C76.1312 41.8426 76.1622 42.1058 76.1855 42.3766ZM77.613 32.718C77.132 32.7876 76.6587 32.8495 76.1777 32.9192C76.2786 33.0508 76.4337 33.3216 76.4648 33.3062C76.8604 33.1359 77.2406 32.9269 77.6208 32.7334C77.7837 32.4471 77.9466 32.1607 78.1018 31.8744C77.9233 31.8202 77.7449 31.7583 77.5587 31.7041C77.582 32.0369 77.5975 32.3774 77.613 32.718ZM82.7258 39.1493C82.493 38.8243 82.2603 38.4992 82.0275 38.1742C82.0818 38.5689 82.1361 38.9713 82.1904 39.366C82.5939 39.8149 82.9973 40.2638 83.4085 40.7127C83.1835 40.1942 82.9507 39.6679 82.7258 39.1493ZM53.3837 16.357C53.2518 16.3648 53.1121 16.3648 52.9802 16.3725C52.8328 16.8833 52.6932 17.4018 52.5458 17.9126C53.4845 17.8739 54.4233 17.843 55.3621 17.8043C55.1836 17.2703 55.0052 16.744 54.819 16.2177C54.5862 16.21 54.3457 16.1945 54.113 16.1868C53.8802 16.2487 53.6319 16.3029 53.3837 16.357ZM64.16 23.5314C62.4765 22.8813 61.7782 22.4943 61.0334 22.3628C60.5214 22.2776 59.9472 22.5485 59.4042 22.6646C59.8386 23.1831 60.2033 24.0267 60.7386 24.1505C61.4524 24.3131 62.298 23.9106 64.16 23.5314ZM86.3955 38.507C85.2472 41.8194 84.9214 42.5779 84.7352 43.3673C84.6576 43.7078 84.8515 44.1025 84.9214 44.474C85.286 43.9709 85.767 43.5066 85.9765 42.9493C86.186 42.3999 86.1162 41.7575 86.3955 38.507ZM89.5143 43.4988C90.1427 43.0113 90.4841 42.7404 90.8255 42.4773C90.2669 42.1367 89.7238 41.7652 89.1419 41.4711C89.01 41.4015 88.7462 41.5795 88.5445 41.6491C88.8316 42.1909 89.1186 42.7404 89.5143 43.4988ZM60.1179 13.7721C59.7688 14.1358 59.5438 14.3758 59.3111 14.6157C59.5981 14.8092 59.8774 15.0104 60.1645 15.2039C60.3662 14.9175 60.63 14.6466 60.7231 14.3293C60.7619 14.221 60.3662 13.9965 60.1179 13.7721ZM91.1048 29.9395C90.9651 29.6377 90.8875 29.452 90.8022 29.2585C90.5384 29.4597 90.2436 29.6377 90.0341 29.8776C89.9798 29.9395 90.1893 30.2182 90.2824 30.3962C90.5539 30.2491 90.8255 30.0943 91.1048 29.9395ZM93.9986 30.667C93.89 30.4813 93.8202 30.2104 93.6495 30.133C93.5099 30.0634 93.2616 30.2104 93.0599 30.2569C93.1685 30.4426 93.2383 30.7057 93.409 30.7909C93.5409 30.8683 93.7892 30.7367 93.9986 30.667ZM93.2228 40.0626C92.9435 40.2715 92.6332 40.4418 92.447 40.6972C92.4004 40.7669 92.7418 41.0997 92.897 41.3086C93.1452 41.0764 93.409 40.8675 93.6107 40.6043C93.6495 40.5502 93.3935 40.3025 93.2228 40.0626ZM73.0201 35.9298L73.2683 36.0304L73.0123 36.1155L73.0201 35.9298ZM80.2819 39.8536C80.2121 39.9388 80.1422 40.0316 80.0724 40.1168C80.1965 40.1245 80.3207 40.14 80.4448 40.1477C80.3827 40.0471 80.3284 39.9465 80.2819 39.8536Z" fill="#A5A296"/>
<path d="M46.0908 89.1531C53.694 87.6207 61.6541 87.8219 68.4271 82.7604C70.871 80.9339 75.107 81.3751 78.5285 80.7792C69.459 93.4794 39.8686 98.4558 22.3115 90.2289C20.0616 88.2863 17.8194 86.336 15.5695 84.3934C14.7781 83.2016 13.9945 82.0097 13.2032 80.8101C14.6617 76.9482 6.50771 74.874 11.155 70.4162C14.0178 73.3184 16.9582 76.151 19.7357 79.1307C26.7415 86.6146 36.0903 87.9071 45.6796 88.6578C45.827 88.8126 45.9589 88.9828 46.0908 89.1531ZM45.827 93.2008C45.9046 93.2472 45.9822 93.2859 46.052 93.3323C45.9589 93.3014 45.8736 93.2782 45.7805 93.2472C45.7107 93.193 45.6408 93.1389 45.5633 93.0847C45.6563 93.1234 45.7417 93.1621 45.827 93.2008ZM44.2133 91.1189C44.7486 91.2582 45.2917 91.3898 45.827 91.5291C45.3848 91.2814 44.9426 91.026 44.5004 90.7784C44.0736 90.5849 43.6469 90.3604 43.197 90.2443C43.1271 90.2211 42.9254 90.6623 42.778 90.8867C43.259 90.9564 43.74 91.0338 44.2133 91.1189Z" fill="#706B5B"/>
<path d="M29.1621 24.6923C29.2474 26.7432 29.581 28.5232 26.1131 27.5017C24.5614 27.045 24.0493 28.9025 23.3045 30.9766C20.915 37.6556 14.0333 34.498 8.83521 34.9701C12.0006 29.0882 15.36 23.3611 21.5667 19.9171C21.5744 20.2809 21.5744 20.6369 21.5822 21.0006C21.6055 21.2173 21.6055 21.434 21.5744 21.6507C21.2563 21.9526 20.9382 22.2621 20.6201 22.564C20.7598 22.6336 20.8994 22.6955 21.0313 22.7652C21.202 22.386 21.3727 21.999 21.5434 21.6198C22.0011 21.821 22.4511 22.0222 22.9089 22.2234C25.0036 23.0438 27.0828 23.8719 29.1621 24.6923ZM17.0203 29.7615C16.8263 29.3591 16.6401 28.9566 16.4461 28.5542C16.3375 28.6006 16.2367 28.6548 16.1281 28.7012C16.4306 29.0495 16.7332 29.3978 17.028 29.7538C16.7875 30.1717 16.5392 30.5896 16.2987 31.0153C16.7254 31.1082 17.1444 31.2088 17.5711 31.3017C17.3927 30.7831 17.2065 30.2723 17.0203 29.7615ZM19.9684 26.2247C19.5417 26.3562 19.309 26.4259 19.084 26.5033C19.4797 26.7742 19.8521 27.1069 20.2865 27.285C20.4572 27.3546 20.7676 27.076 21.0158 26.9599C20.6357 26.6968 20.2633 26.4336 19.9684 26.2247ZM16.5005 33.3139C15.7634 32.7721 15.4841 32.5709 15.2048 32.3697C15.0574 32.6251 14.7548 32.9037 14.7936 33.1359C14.8324 33.3758 15.1738 33.7163 15.4143 33.7395C15.7091 33.7705 16.035 33.5151 16.5005 33.3139ZM19.9219 29.7074C19.9219 29.4752 19.9219 29.2507 19.9219 29.0186C19.7434 29.0186 19.565 29.0186 19.3866 29.0263C19.3866 29.2507 19.3555 29.4907 19.4176 29.6919C19.4409 29.7538 19.7434 29.7306 19.9219 29.7074ZM27.1837 25.0173C27.1294 24.9322 27.0984 24.7929 27.0285 24.7619C26.9354 24.731 26.8035 24.7929 26.6949 24.8084C26.7648 24.9322 26.8346 25.0638 26.9044 25.1876C26.9975 25.1334 27.0906 25.0792 27.1837 25.0173Z" fill="#706B5B"/>
<path d="M6.80253 39.2654C6.88011 47.3685 7.26027 55.4948 6.83356 63.5746C6.72494 65.7107 15.2902 69.0541 6.20514 70.2072C-0.847205 59.7592 1.08462 49.4813 6.80253 39.2654Z" fill="#706B5B"/>
<path d="M88.9868 53.32C90.0264 52.1437 91.0738 50.9673 92.1134 49.7986C93.0754 50.5184 94.0375 51.2382 94.9995 51.9579C96.0158 54.6435 97.0322 57.329 98.0408 60.0068C97.9244 60.2622 97.808 60.5253 97.6994 60.7807C96.8149 60.7653 95.9227 60.7575 95.0383 60.742L95.0538 60.7653C95.7676 54.8834 90.4221 57.7934 88.1489 56.2378L88.2109 55.9901C88.4747 55.1001 88.7307 54.2101 88.9868 53.32Z" fill="#706B5B"/>
<path d="M21.59 21.0006C21.5822 20.6369 21.5822 20.2809 21.5745 19.9171C24.8097 18.6401 25.6476 13.2923 30.5742 14.8943C30.8379 16.6976 26.1907 17.9281 29.9302 20.1338C33.1266 22.2002 29.4104 23.1754 29.1621 24.6923C27.0829 23.8642 25.0037 23.0438 22.9167 22.2157C22.4744 21.8133 22.0322 21.4031 21.59 21.0006Z" fill="#A5A296"/>
<path d="M98.0485 60.0068C97.0322 57.3213 96.0158 54.6357 95.0073 51.9579L95.0693 51.8883C100.849 50.7661 100.469 47.1518 98.8321 43.0345L98.8554 43.0577C98.6847 42.8023 98.514 42.5469 98.3356 42.2838C98.5839 41.4711 98.8321 40.6585 99.0804 39.8381L99.3442 40.0161L99.639 39.9078C100.073 40.0161 100.508 40.1245 100.942 40.2251C100.888 43.1273 100.842 46.0296 100.787 48.9318C100.71 49.4968 100.632 50.0618 100.562 50.6345C99.7243 53.7612 98.8864 56.8801 98.0485 60.0068Z" fill="#302B26"/>
<path d="M29.9302 20.1338C26.1906 17.9204 30.8379 16.6976 30.5741 14.8943C32.4749 11.7831 35.074 9.96435 38.9919 10.6067C37.1765 12.9827 35.361 15.3587 33.5378 17.7346C32.3353 18.5318 31.1327 19.3367 29.9302 20.1338Z" fill="#706B5B"/>
<path d="M80.7862 9.7399C83.2456 12.41 85.705 15.08 88.1644 17.7578C85.6119 15.9468 83.0594 14.1281 80.5146 12.3171C80.6 11.458 80.6931 10.599 80.7862 9.7399Z" fill="#A5A296"/>
<path d="M96.7064 32.1762C97.1874 31.8279 97.6684 31.4797 98.1417 31.1314C98.6382 33.1436 99.127 35.1559 99.6235 37.1681C97.8546 37.1526 96.0857 37.1371 94.3245 37.1216C94.4409 37.0055 94.4332 36.8895 94.3013 36.7888C94.5418 36.4328 94.7745 36.0691 95.015 35.7131C95.5736 34.5367 96.14 33.3526 96.7064 32.1762Z" fill="#302B26"/>
<path d="M80.7862 9.73991C80.6931 10.599 80.6078 11.458 80.5147 12.3171C77.7915 11.2955 75.0683 10.2662 72.3529 9.2446C72.2986 8.90407 72.2442 8.56354 72.1899 8.22301C74.7657 8.50936 77.3492 8.79572 79.925 9.08981C80.2043 9.29103 80.4914 9.5 80.7707 9.70122L80.7862 9.73991Z" fill="#706B5B"/>
<path d="M95.3253 25.1489C94.3943 28.2988 92.672 28.0589 90.5694 26.2014C90.5617 25.7061 90.5462 25.2108 90.5384 24.7155L90.4686 24.5684C90.4919 24.3285 90.4453 24.1041 90.3134 23.8951C90.9341 23.5546 91.5547 23.2141 92.1754 22.8735C93.2228 23.632 94.2779 24.3904 95.3253 25.1489Z" fill="#706B5B"/>
<path d="M15.5695 84.3934C17.8194 86.336 20.0615 88.2863 22.3115 90.2289C20.0693 88.2786 17.8194 86.336 15.5695 84.3934Z" fill="#302B26"/>
<path d="M90.585 70.4162C90.0497 69.1547 89.5221 67.9009 88.9868 66.6394L89.0255 66.6858C90.2902 66.4459 91.5548 66.206 92.8194 65.9661C92.0668 67.452 91.322 68.938 90.585 70.4162Z" fill="#706B5B"/>
<path d="M94.2237 65.7184C96.7374 64.426 88.6221 61.4231 95.0616 60.7653L95.0461 60.7421C95.3486 61.5237 95.6434 62.3054 95.946 63.0871C95.3641 63.9616 94.7978 64.8439 94.2237 65.7184Z" fill="#706B5B"/>
<path d="M87.6756 73.5429C87.4894 72.2969 87.311 71.0586 87.1248 69.8125C88.048 70.2769 88.9635 70.7335 89.8867 71.1979C89.1497 71.9718 88.4126 72.7535 87.6756 73.5429Z" fill="#706B5B"/>
<path d="M95.9382 63.0871C95.6357 62.3054 95.3408 61.5237 95.0383 60.7421C95.9227 60.7575 96.8149 60.7653 97.6994 60.7807C97.1175 61.5469 96.5279 62.3209 95.9382 63.0871Z" fill="#302B26"/>
<path d="M92.1677 22.8736C91.547 23.2141 90.9263 23.5546 90.3057 23.8951C89.8091 23.6475 89.3048 23.3998 88.8083 23.1522C89.9332 23.0593 91.0505 22.9664 92.1677 22.8736Z" fill="#A5A296"/>
<path d="M86.6204 35.5428C86.9308 35.7208 87.2411 35.8988 87.5514 36.0768C87.0472 35.9685 86.5506 35.8679 86.0463 35.7595C86.2093 35.6125 86.4032 35.5351 86.6204 35.5428Z" fill="#706B5B"/>
<path d="M81.4379 30.52C81.6629 30.2336 81.8801 29.9473 82.1051 29.6687C82.1827 29.7461 82.2603 29.8312 82.3379 29.9086C82.0198 30.0943 81.7017 30.2801 81.3914 30.4736C81.3914 30.4658 81.4379 30.52 81.4379 30.52Z" fill="#A5A296"/>
<path d="M100.562 50.6345C100.64 50.0695 100.717 49.4968 100.787 48.9318C100.71 49.4968 100.64 50.0695 100.562 50.6345Z" fill="#706B5B"/>
<path d="M98.1882 31.232C98.1804 30.8992 98.1804 30.5587 98.1727 30.2259C98.1804 30.5587 98.1882 30.8992 98.1882 31.232Z" fill="#302B26"/>
<path d="M80.7629 9.69348C80.4836 9.49226 80.1965 9.2833 79.9172 9.08208C80.1965 9.2833 80.4836 9.49226 80.7629 9.69348Z" fill="#A5A296"/>
<path d="M48.271 70.8806C48.6899 70.6793 49.1089 70.4781 49.5278 70.2769L49.714 70.4394C50.3424 71.5616 50.9631 72.6761 51.5915 73.7983C51.7545 73.9376 51.9251 74.0769 52.0803 74.2162C51.6691 74.727 51.2579 75.2378 50.8467 75.7409C54.1363 74.9747 56.937 79.9588 60.6533 76.3677C61.7162 75.3384 63.8885 75.4158 65.5566 74.9824C65.223 76.2594 65.0678 77.6293 64.4549 78.7747C64.2066 79.239 62.8567 79.0223 62.2205 79.4325C50.901 86.5991 39.473 87.938 27.9363 79.9897C26.8114 79.2158 23.3977 77.5906 28.107 77.0411C29.2708 76.9018 30.5586 77.7686 31.7845 78.1787C31.9707 78.3181 32.1646 78.4496 32.3508 78.5889C33.0568 78.5348 33.7628 78.4883 34.4689 78.4341L34.4068 78.4728C36.1059 78.1091 37.8127 77.7453 39.5118 77.3893C38.5885 77.2887 37.6653 77.1959 36.742 77.0952C36.1834 76.9791 35.6248 76.8708 35.0585 76.7547C36.3696 76.329 37.6808 75.9111 38.992 75.4855L38.9454 75.5242C43.1349 76.5922 46.0055 75.0366 47.7899 71.3217C47.9684 71.1901 48.1236 71.0353 48.271 70.8806ZM54.1518 82.1645C53.8337 82.358 53.5156 82.5515 53.1975 82.7449C53.2829 82.8223 53.3604 82.8997 53.4458 82.9771C53.6785 82.6985 53.9113 82.4276 54.144 82.149C54.2061 82.0484 54.2604 81.9555 54.3225 81.8549C54.2604 81.9633 54.2061 82.0639 54.1518 82.1645ZM40.5514 80.0671C40.2566 79.4557 40.1247 78.914 39.9695 78.9062C39.5195 78.883 39.0618 79.0765 38.6041 79.1849C38.7282 79.4325 38.7903 79.8272 38.9842 79.8969C39.3799 80.0362 39.8376 80.0052 40.5514 80.0671Z" fill="#706B5B"/>
<path d="M62.5774 39.4744C62.6084 39.7685 62.6394 40.0626 62.6705 40.3489C62.4765 40.5347 62.2903 40.7204 62.0963 40.8984C61.7472 41.3241 61.4058 41.7575 61.0567 42.1832C59.5051 40.2561 57.9611 38.329 56.4095 36.4019C56.169 36.2239 55.9285 36.0459 55.6879 35.8679C55.6259 35.953 55.5638 36.0381 55.5017 36.1233C55.8121 36.2084 56.1224 36.2858 56.4327 36.3709C56.0293 36.9978 55.75 37.7872 55.1759 38.1819C54.9121 38.3677 53.5777 37.6634 53.6009 37.586C54.2371 35.1945 54.9897 32.8263 55.719 30.4581L55.6492 30.4271C59.443 32.8031 58.0698 28.5929 59.3111 27.7106C63.2989 21.2792 64.4006 29.4984 67.1781 29.1888L67.4806 29.3204L67.7211 29.0882C68.6909 29.2972 69.6607 29.5061 70.6305 29.7151C69.9633 32.1994 69.2883 34.676 68.6211 37.1603C67.822 36.6341 67.0229 36.1078 66.2315 35.5815L66.216 35.6589C66.6893 34.9314 67.1548 34.2116 67.628 33.4842C66.2859 33.7318 64.9437 33.9872 63.6092 34.2349C62.3524 34.529 60.3197 34.4748 59.9783 35.1868C58.9077 37.408 59.0861 39.5595 62.5774 39.4744ZM64.7264 30.5123C64.2144 30.2259 63.9583 29.9628 63.7023 29.9705C63.5084 29.9705 63.3222 30.311 63.136 30.5045C63.3144 30.6438 63.4851 30.907 63.6635 30.907C63.9351 30.907 64.1989 30.7212 64.7264 30.5123ZM61.4446 32.1762C61.3671 32.3619 61.2817 32.5477 61.2041 32.7334C61.3671 32.7954 61.6076 32.9656 61.6851 32.9114C61.8481 32.7954 61.9257 32.5709 62.042 32.3929C61.8558 32.3078 61.6619 32.2381 61.4446 32.1762ZM64.2764 32.3465C64.2221 32.2691 64.1833 32.1375 64.1135 32.1143C64.0204 32.0833 63.8963 32.1375 63.7877 32.153C63.8575 32.2691 63.9351 32.3929 64.0049 32.509C64.098 32.4548 64.1911 32.4006 64.2764 32.3465Z" fill="#706B5B"/>
<path d="M78.4276 52.6777C78.6681 53.6451 78.9009 54.6125 79.1414 55.5722C78.6449 57.538 78.1483 59.496 77.6518 61.4618C77.132 61.841 76.6122 62.2203 76.0924 62.5995C76.2243 63.2341 76.3639 63.8687 76.4958 64.5034C77.2251 64.1164 77.9544 63.7372 78.6759 63.3502C78.2802 62.9091 77.8845 62.4679 77.4889 62.0268C77.4889 61.8256 77.5354 61.6321 77.6518 61.4618C83.168 66.5001 77.8457 67.4907 74.5174 68.7755C73.695 69.0928 71.2279 67.6842 71.0727 66.8097C70.8167 65.3547 71.8175 63.6907 72.2908 62.1119L72.2675 62.1971C72.5158 61.9339 72.7563 61.6708 73.0045 61.4076C72.5158 61.1832 72.027 60.9588 71.5382 60.7343C70.3201 60.3087 69.1098 59.883 67.8918 59.4573C71.4141 57.2052 74.9209 54.9376 78.4276 52.6777Z" fill="#706B5B"/>
<path d="M20.2322 74.7657C28.0604 75.1449 28.4949 70.4472 29.8526 66.5156C32.1879 68.4736 34.5231 70.4394 36.8584 72.3975C32.5603 73.7209 28.2776 75.0908 23.9485 76.3213C23.4364 76.4684 22.6839 75.826 20.2322 74.7657Z" fill="#706B5B"/>
<path d="M56.425 56.2687C57.0534 57.8011 57.6197 59.3645 58.3645 60.8427C58.574 61.2606 59.3266 61.4154 59.8309 61.6863C59.4119 62.3596 58.993 63.0252 58.574 63.6985C55.4862 59.2251 53.019 65.494 50.3191 64.1474C49.1011 63.5437 48.3795 61.9726 47.433 60.8349C47.371 60.3396 47.3166 59.852 47.2546 59.3567C52.1191 63.505 53.1354 56.5628 56.4793 56.3152L56.425 56.2687Z" fill="#706B5B"/>
<path d="M76.1545 41.5331C78.063 42.1986 80.7784 42.3612 81.6474 43.6768C82.5396 45.0235 81.6163 47.5001 81.4922 49.4891C80.4526 49.3188 79.413 49.1485 78.3733 48.9783C77.6441 46.7803 76.9148 44.5823 76.1933 42.3766C76.1622 42.1135 76.1312 41.8426 76.1079 41.5795L76.1545 41.5331Z" fill="#706B5B"/>
<path d="M40.3109 17.6418C43.8797 11.0092 47.5494 17.2935 51.1803 17.5644C49.8536 17.8817 48.5269 18.199 47.2003 18.5163C46.4865 18.6092 45.7727 18.702 45.059 18.8027C44.6633 19.0194 44.2754 19.2283 43.8797 19.445C43.7711 19.12 43.6625 18.7949 43.5461 18.4699C42.4599 18.1835 41.3815 17.9126 40.3109 17.6418Z" fill="#706B5B"/>
<path d="M32.3353 20.7762C34.4998 20.0642 36.6567 19.3444 38.8212 18.6324C39.1859 18.7021 39.5583 18.7717 39.9229 18.8414C38.5032 20.4744 37.0834 22.1074 35.6714 23.7404C34.5619 22.7497 33.4447 21.7591 32.3353 20.7762Z" fill="#706B5B"/>
<path d="M45.0435 28.2911C43.9418 28.7554 42.8323 29.2198 41.7307 29.6764C41.5677 27.254 41.4048 24.8239 41.2419 22.4014C42.2272 23.1135 43.2203 23.8255 44.2056 24.5375C44.834 24.522 45.4702 24.5143 46.0986 24.4988C46.2538 25.0019 46.4089 25.5049 46.5719 26.008C46.502 26.3485 46.4322 26.6813 46.3624 27.0218C46.1684 27.4475 45.9822 27.8731 45.7883 28.2988L45.4314 28.2446L45.0667 28.2679C44.7874 27.8422 44.5159 27.4165 44.2444 26.9909C44.0814 27.1302 43.9185 27.2772 43.7633 27.4165C44.1901 27.7106 44.6168 27.997 45.0435 28.2911Z" fill="#706B5B"/>
<path d="M66.4642 42.3767C68.3961 43.8084 70.3279 45.2325 72.2597 46.6642C70.3046 50.9363 67.7832 48.0651 65.9522 46.7648C65.3548 46.3392 66.2548 43.9013 66.4642 42.3767Z" fill="#706B5B"/>
<path d="M72.733 69.8512C74.5097 70.7413 75.9605 71.4688 77.4035 72.1885C76.3562 72.9779 75.1226 74.5413 74.308 74.3555C73.1442 74.0924 72.2132 72.591 71.3753 71.4842C71.2589 71.3372 72.2753 70.3775 72.733 69.8512Z" fill="#706B5B"/>
<path d="M25.2053 65.9816C24.6157 66.7942 24.0338 67.6068 23.452 68.4195C22.5365 67.4288 21.6287 66.4382 20.7133 65.4398C21.8305 64.7665 22.9477 64.1009 24.0571 63.4276C24.3674 64.1164 24.6778 64.7975 25.2053 65.9816Z" fill="#706B5B"/>
<path d="M48.7675 20.8768C49.0313 20.8691 49.2873 20.8691 49.5511 20.8613C49.8304 21.3721 50.1097 21.8752 50.389 22.386L50.3735 22.3086C48.2399 21.7359 53.0423 29.3049 47.4486 24.6691C47.402 24.4059 47.3632 24.1351 47.3167 23.8719C47.1305 22.9587 46.9443 22.0532 46.7503 21.1399C47.3865 21.612 48.0227 22.0841 48.6666 22.5485C48.7209 21.9758 48.7752 21.4031 48.8373 20.8304L48.7675 20.8768Z" fill="#706B5B"/>
<path d="M44.2056 24.5298C43.2203 23.8177 42.2272 23.1057 41.2419 22.3937C42.01 21.078 42.7703 19.7701 43.5384 18.4544C43.647 18.7794 43.7556 19.1045 43.872 19.4295C43.9806 21.1322 44.097 22.8348 44.2056 24.5298Z" fill="#A5A296"/>
<path d="M61.7006 69.5958C61.7006 69.8512 61.7006 70.0989 61.7006 70.3543L61.7394 70.3233C60.7308 70.4162 59.73 70.5013 58.7214 70.5942C58.8145 69.65 58.9076 68.6981 59.0007 67.7539C59.9162 68.3808 60.8317 68.9999 61.7472 69.6268L61.7006 69.5958Z" fill="#706B5B"/>
<path d="M57.2319 70.393C56.6422 71.314 56.0603 72.235 55.4707 73.1559C55.0595 72.6838 54.6406 72.204 54.2294 71.7319C55.1914 71.2521 56.1457 70.7722 57.1077 70.2924L57.2319 70.393Z" fill="#706B5B"/>
<path d="M88.335 65.0451C88.0169 64.8671 87.5514 64.604 87.0782 64.3331C87.9238 64.0235 88.7462 63.5282 89.6152 63.4663C90.1815 63.4198 90.8022 63.9926 91.3996 64.2944C90.4686 64.5188 89.5376 64.7433 88.335 65.0451Z" fill="#706B5B"/>
<path d="M57.9921 44.0174C56.8594 44.4121 56.3163 44.7913 55.8431 44.7217C55.3078 44.6443 54.8267 44.1722 54.3224 43.8703C54.7104 43.5762 55.1216 43.0113 55.4862 43.0422C56.1301 43.0887 56.7431 43.4988 57.9921 44.0174Z" fill="#706B5B"/>
<path d="M49.458 29.8234C48.752 29.9395 48.0459 30.0479 47.3322 30.164C47.2779 29.8544 47.2236 29.5526 47.1693 29.243C48.558 28.7864 49.9467 28.322 51.3277 27.8654C51.2812 28.1285 51.2424 28.3917 51.1958 28.6548C50.9941 28.8096 50.7846 28.9644 50.5829 29.1269C50.2105 29.3591 49.8304 29.5913 49.458 29.8234Z" fill="#706B5B"/>
<path d="M86.1161 59.5579C85.9067 60.0455 85.7205 60.4634 85.542 60.8891C85.1231 60.1074 84.6421 59.349 84.3162 58.5363C84.1766 58.1726 84.3705 57.6928 84.4171 57.2594C84.9602 57.9946 85.511 58.7376 86.1161 59.5579Z" fill="#706B5B"/>
<path d="M81.3836 54.8989C82.0896 53.529 82.8034 52.3294 83.7421 54.7673C82.9586 54.8524 82.3689 58.1262 81.3836 54.8989Z" fill="#706B5B"/>
<path d="M71.5538 60.7421C72.0425 60.9665 72.5313 61.1909 73.0201 61.4154C72.7718 61.6785 72.5313 61.9417 72.283 62.2048L72.3063 62.1197C71.3986 62.1274 70.4831 62.1351 69.5754 62.1429C70.2348 61.6785 70.8943 61.2064 71.5538 60.7421Z" fill="#A5A296"/>
<path d="M39.0152 75.5009C38.3014 75.0675 37.5877 74.6341 36.8739 74.2007C37.223 73.9686 37.5722 73.7286 37.929 73.4965C38.2782 74.1775 38.6195 74.8586 38.9687 75.5474C38.9687 75.5396 39.0152 75.5009 39.0152 75.5009Z" fill="#706B5B"/>
<path d="M60.1878 55.5799C59.6447 56.0752 59.0938 56.5628 58.5508 57.0581C58.0775 56.8027 57.6042 56.5551 57.131 56.2997L57.1775 56.3616C57.1077 56.1526 57.0689 55.9437 57.0612 55.727C58.1163 55.6883 59.1714 55.6496 60.2343 55.6109L60.1878 55.5799Z" fill="#706B5B"/>
<path d="M31.7922 78.1942C32.4284 77.7763 33.0568 77.3661 33.693 76.9482C33.98 77.2655 34.2671 77.5906 34.5619 77.9079C34.5464 78.1091 34.4998 78.3026 34.4223 78.4883L34.4843 78.4496C33.7783 78.5038 33.0723 78.5502 32.3663 78.6044C32.1723 78.4651 31.9861 78.3258 31.7922 78.1942Z" fill="#706B5B"/>
<path d="M55.719 30.4736C55.4397 29.2353 55.1526 27.997 54.8733 26.7587C55.1293 26.7742 55.3931 26.7819 55.6491 26.7974C55.6491 28.0125 55.6491 29.2275 55.6569 30.4426L55.719 30.4736Z" fill="#A5A296"/>
<path d="M32.1335 67.5604C32.5215 67.3514 32.8008 67.2044 33.0878 67.0496C33.243 67.3437 33.5456 67.6688 33.499 67.9319C33.4602 68.1641 33.0258 68.3343 32.762 68.5278C32.5835 68.2415 32.4051 67.9628 32.1335 67.5604Z" fill="#706B5B"/>
<path d="M55.6491 26.7974C55.3931 26.7819 55.1293 26.7742 54.8733 26.7587C55.0983 26.2788 55.331 25.799 55.556 25.3192C56.0293 25.3346 56.5103 25.3424 56.9836 25.3579C57.2008 25.3656 57.3172 25.474 57.3327 25.6907C56.9913 25.8222 56.6577 25.9538 56.3163 26.0854C56.0914 26.3175 55.8664 26.5575 55.6491 26.7974Z" fill="#706B5B"/>
<path d="M89.0876 60.951C88.785 60.595 88.6066 60.3938 88.4282 60.1848C88.7152 60.0068 88.9868 59.7282 89.2971 59.6895C89.5609 59.6586 89.8712 59.8907 90.1583 60.0068C89.8402 60.2932 89.5221 60.5718 89.0876 60.951Z" fill="#706B5B"/>
<path d="M54.8578 48.0109C54.5474 48.2508 54.2992 48.4443 54.0587 48.63C53.888 48.3514 53.5776 48.0573 53.6009 47.7942C53.6164 47.5465 53.9966 47.3298 54.2216 47.0976C54.4 47.3608 54.594 47.6316 54.8578 48.0109Z" fill="#706B5B"/>
<path d="M47.1693 29.243C47.2236 29.5526 47.2779 29.8544 47.3322 30.164C46.8201 29.5371 46.3003 28.9179 45.7883 28.2911C45.9822 27.8654 46.1684 27.4397 46.3624 27.0141C46.6339 27.757 46.9055 28.5 47.1693 29.243Z" fill="#A5A296"/>
<path d="M58.7059 48.2043C58.3025 47.9257 58.0076 47.7245 57.7206 47.5233C58.0076 47.2988 58.2714 46.9506 58.5895 46.8887C58.8068 46.85 59.1093 47.206 59.3731 47.3917C59.1636 47.6471 58.9619 47.8948 58.7059 48.2043Z" fill="#706B5B"/>
<path d="M47.3244 23.8719C47.3709 24.135 47.4097 24.4059 47.4563 24.6691C47.1615 25.1179 46.8666 25.5591 46.5718 26.008C46.4167 25.5049 46.2615 25.0019 46.0986 24.4988C46.5098 24.2898 46.9132 24.0809 47.3244 23.8719Z" fill="#A5A296"/>
<path d="M67.5659 67.5914C67.0384 67.9087 66.7901 68.1563 66.5108 68.2028C66.2858 68.2415 66.0143 68.0325 65.766 67.9396C65.9212 67.7926 66.0531 67.5372 66.2237 67.514C66.5496 67.4598 66.8987 67.5372 67.5659 67.5914Z" fill="#706B5B"/>
<path d="M51.2036 28.6548C51.2502 28.3917 51.289 28.1285 51.3355 27.8654C51.7312 27.9738 52.1269 28.0898 52.5225 28.1982C52.0803 28.353 51.6381 28.5078 51.2036 28.6548Z" fill="#A5A296"/>
<path d="M61.0567 42.1909C61.4058 41.7652 61.7472 41.3318 62.0963 40.9062C61.7472 41.3318 61.3981 41.7652 61.0567 42.1909Z" fill="#A5A296"/>
<path d="M57.131 56.2997C57.6042 56.5551 58.0775 56.8027 58.5508 57.0504C58.4809 57.4683 58.4111 57.894 58.3413 58.3119C57.9379 57.6463 57.5344 56.973 57.131 56.2997Z" fill="#A5A296"/>
<path d="M49.4734 52.1437C49.7605 52.3139 49.939 52.4145 50.1252 52.5229C49.9467 52.7938 49.7993 53.0879 49.5665 53.2891C49.5122 53.3433 49.1864 53.1188 48.9924 53.0182C49.1476 52.7318 49.3028 52.4532 49.4734 52.1437Z" fill="#706B5B"/>
<path d="M35.2369 29.8776C35.0663 30.0092 34.8956 30.133 34.7326 30.2569C34.6783 30.0479 34.5464 29.8157 34.6008 29.6377C34.6473 29.4907 34.9111 29.4055 35.074 29.2972C35.1283 29.4829 35.1826 29.6764 35.2369 29.8776Z" fill="#A5A296"/>
<path d="M49.4579 29.8235C49.8381 29.5913 50.2183 29.3591 50.5907 29.1269C50.5131 29.5913 50.4355 30.0479 50.3579 30.5123C50.1096 30.5896 49.8691 30.5819 49.6286 30.4813C49.551 30.2723 49.489 30.0479 49.4579 29.8235Z" fill="#A5A296"/>
<path d="M61.4446 44.7062C61.5299 45.1705 61.6386 45.4878 61.6308 45.8052C61.6308 45.9367 61.3825 46.0606 61.2429 46.1921C61.1498 45.8826 61.0101 45.573 60.9869 45.2557C60.9713 45.1241 61.2119 44.9693 61.4446 44.7062Z" fill="#706B5B"/>
<path d="M47.2546 59.3567C47.3166 59.852 47.371 60.3396 47.433 60.8349C47.1848 60.6956 46.7037 60.4944 46.727 60.4325C46.8434 60.0533 47.0684 59.7127 47.2546 59.3567Z" fill="#A5A296"/>
<path d="M60.2343 55.6109C60.3041 55.1543 60.374 54.6976 60.4515 54.241C60.5446 54.2952 60.7308 54.3881 60.7308 54.3958C60.5602 54.7905 60.374 55.1852 60.1955 55.5799C60.1878 55.5799 60.2343 55.6109 60.2343 55.6109Z" fill="#706B5B"/>
<path d="M11.5739 35.8911C11.4886 36.1 11.3955 36.3013 11.3024 36.5025C11.2326 36.4019 11.1007 36.2858 11.1162 36.2084C11.1627 35.9917 11.2791 35.7982 11.3645 35.5892C11.4343 35.6821 11.4963 35.7827 11.5739 35.8911Z" fill="#706B5B"/>
<path d="M68.3573 65.4863C68.528 65.6565 68.6909 65.8191 68.8461 65.9816C68.6133 66.1596 68.3883 66.3376 68.1556 66.5156C68.0625 66.2989 67.8841 66.0822 67.8996 65.8732C67.9073 65.7339 68.1866 65.6101 68.3573 65.4863Z" fill="#706B5B"/>
<path d="M88.9868 66.6472C88.5988 66.7865 88.2109 66.9258 87.823 67.0651C87.792 66.8561 87.7687 66.6472 87.7377 66.4305C88.1644 66.5156 88.5911 66.6007 89.0178 66.6936L88.9868 66.6472Z" fill="#706B5B"/>
<path d="M51.5992 73.806C51.9872 73.481 52.3673 73.1559 52.7552 72.8309C52.538 73.2952 52.313 73.7596 52.0958 74.224C51.9251 74.0846 51.7622 73.9453 51.5992 73.806Z" fill="#706B5B"/>
<path d="M34.5619 77.9001C34.2749 77.5828 33.9878 77.2578 33.693 76.9405C34.1585 76.8785 34.6162 76.8244 35.0817 76.7624C35.6403 76.8785 36.1989 76.9869 36.7575 77.103C36.0205 77.3661 35.2912 77.637 34.5619 77.9001Z" fill="#A5A296"/>
<path d="M45.6874 88.65C46.2848 88.4875 46.8744 88.325 47.4718 88.1702C47.0141 88.4953 46.5486 88.8203 46.0908 89.1531C45.9589 88.9828 45.827 88.8126 45.6874 88.65Z" fill="#706B5B"/>
<path d="M49.6364 30.4813C49.8769 30.5819 50.1174 30.5897 50.3657 30.5123C50.3347 30.8373 50.3036 31.1546 50.2648 31.4797C50.0554 31.1469 49.8459 30.8141 49.6364 30.4813Z" fill="#706B5B"/>
<path d="M50.6993 38.685C50.4588 38.8243 50.3114 38.9404 50.1407 38.9946C50.0786 39.01 49.8847 38.832 49.9002 38.7933C49.9622 38.6076 50.0786 38.4373 50.1717 38.2671C50.3346 38.3986 50.5053 38.5302 50.6993 38.685Z" fill="#706B5B"/>
<path d="M57.1077 70.2924C57.0379 70.1066 57.0224 69.9132 57.0534 69.7197L57.3094 69.472C57.2861 69.7816 57.2551 70.0834 57.2318 70.393L57.1077 70.2924Z" fill="#706B5B"/>
<path d="M47.8132 71.3372C47.7123 71.1592 47.6037 70.9889 47.5029 70.8109C47.7589 70.8341 48.0149 70.8651 48.2709 70.8883C48.1235 71.0354 47.9684 71.1901 47.8132 71.3372Z" fill="#706B5B"/>
<path d="M61.7006 70.362C61.786 70.4162 61.8713 70.4704 61.9566 70.5246C61.8791 70.4626 61.8092 70.393 61.7317 70.3311C61.7394 70.3233 61.7006 70.362 61.7006 70.362Z" fill="#706B5B"/>
<path d="M53.9113 27.8499C53.8414 27.9119 53.7639 28.0202 53.694 28.0202C53.6242 28.0202 53.5544 27.9041 53.4846 27.8422C53.5544 27.7803 53.632 27.6719 53.7018 27.6719C53.7716 27.6719 53.8414 27.788 53.9113 27.8499Z" fill="#A5A296"/>
<path d="M64.7962 44.5514C64.6488 44.6443 64.4937 44.7371 64.3463 44.83C64.4471 44.6907 64.5557 44.5514 64.6566 44.4121C64.6566 44.4198 64.7962 44.5514 64.7962 44.5514Z" fill="#706B5B"/>
<path d="M59.8076 45.7897L59.699 45.5498L59.9628 45.5807L59.8076 45.7897Z" fill="#706B5B"/>
<path d="M64.6566 44.4198C64.7962 44.3269 64.9436 44.2341 65.0833 44.1412C64.9824 44.2805 64.8893 44.4198 64.7884 44.5591C64.7962 44.5514 64.6566 44.4198 64.6566 44.4198Z" fill="#706B5B"/>
<path d="M57.0611 55.727C57.0611 55.9437 57.0999 56.1526 57.1775 56.3616C56.9292 56.3306 56.6732 56.2997 56.4249 56.2687L56.4792 56.3152C56.6732 56.1217 56.8672 55.9205 57.0611 55.727Z" fill="#A5A296"/>
<path d="M73.8347 79.9356C73.889 79.8582 73.9433 79.7808 73.9976 79.7034C73.9511 79.7885 73.8968 79.8659 73.8502 79.951L73.8347 79.9356Z" fill="#706B5B"/>
<path d="M73.8502 79.951C73.7571 80.1291 73.6563 80.3071 73.5632 80.4851C73.6563 80.2993 73.7416 80.1136 73.8347 79.9356L73.8502 79.951Z" fill="#706B5B"/>
<path d="M49.233 61.6863L49.3105 61.872L49.1166 61.8565L49.233 61.6863Z" fill="#706B5B"/>
<path d="M49.458 69.7351C49.3338 69.5649 49.2097 69.3946 49.0856 69.2243C49.3494 69.2708 49.6054 69.3095 49.8692 69.3559C49.7295 69.4875 49.5976 69.6113 49.458 69.7351Z" fill="#706B5B"/>
<path d="M57.0534 69.7197C56.9758 69.5649 56.8982 69.4101 56.8129 69.2476C56.9758 69.325 57.1387 69.3946 57.3016 69.472L57.0534 69.7197Z" fill="#706B5B"/>
<path d="M61.7395 69.6345C61.7705 69.5339 61.8015 69.4411 61.8403 69.3404C61.7938 69.4256 61.7472 69.5107 61.7084 69.5958C61.7007 69.5958 61.7395 69.6345 61.7395 69.6345Z" fill="#706B5B"/>
<path d="M49.5278 70.2846C49.5278 70.0989 49.5045 69.9132 49.4579 69.7352C49.5976 69.6113 49.7295 69.4875 49.8691 69.3559C49.8148 69.7197 49.7683 70.0834 49.714 70.4472L49.5278 70.2846Z" fill="#706B5B"/>
<path d="M86.7058 73.7286C86.667 73.5739 86.6205 73.4191 86.5817 73.2643C86.6282 73.4191 86.6748 73.5739 86.7291 73.7209L86.7058 73.7286Z" fill="#706B5B"/>
<path d="M62.5774 39.4744C59.0939 39.5595 58.9077 37.408 59.9783 35.1791C60.3197 34.467 62.3524 34.5212 63.6092 34.2271C64.4781 34.6992 65.3471 35.1713 66.216 35.6434L66.2315 35.566C65.4247 36.6186 64.6178 37.6711 63.8109 38.7159L63.842 38.7779C63.4153 39.0178 62.9963 39.25 62.5774 39.4744ZM61.6076 37.2145C61.5145 37.021 61.4214 36.8275 61.3283 36.6341C61.0955 36.7656 60.8705 36.8972 60.6378 37.0288C60.7852 37.1913 60.9093 37.4157 61.0877 37.4776C61.2119 37.5241 61.4214 37.3306 61.6076 37.2145Z" fill="#302B26"/>
<path d="M47.3244 23.8719C46.9132 24.0809 46.5098 24.2898 46.0986 24.4988C45.4702 24.5143 44.834 24.522 44.2056 24.5375C44.0969 22.8349 43.9806 21.1399 43.8719 19.4373C44.2676 19.2206 44.6555 19.0116 45.0512 18.7949C45.765 18.7021 46.4788 18.6092 47.1925 18.5086C48.5192 18.1913 49.8459 17.8739 51.1726 17.5566C50.3734 18.6634 49.5666 19.7701 48.7675 20.8768L48.8373 20.8304C47.9063 20.7065 46.9753 20.575 46.0443 20.4511C46.2848 20.6833 46.5175 20.9078 46.7581 21.1399C46.9443 22.0532 47.1382 22.9587 47.3244 23.8719Z" fill="#302B26"/>
<path d="M95.0615 41.5717C95.2167 41.2235 95.3719 40.8829 95.5348 40.5347C95.8994 40.6198 96.2641 40.7049 96.6287 40.7901C96.8382 41.3473 97.0477 41.9045 97.2571 42.4618C97.7847 42.6553 98.32 42.8565 98.8476 43.05L98.8243 43.0267C98.6148 43.5143 98.4054 44.0096 98.1959 44.4972C97.614 44.265 97.0321 44.0174 96.4348 43.8316C96.3649 43.8084 96.1787 44.1489 96.0468 44.3192C96.7218 44.4353 97.3968 44.5436 98.064 44.6597C97.133 45.2324 96.2098 45.8129 95.2788 46.3856C95.2089 44.7758 95.1391 43.1738 95.0615 41.5717Z" fill="#302B26"/>
<path d="M55.6491 26.7974C55.8741 26.5575 56.0991 26.3175 56.3241 26.0776C57.3172 26.6194 58.318 27.1611 59.3111 27.7106C58.0697 28.5929 59.4429 32.8031 55.6569 30.4426C55.6491 29.2275 55.6491 28.0125 55.6491 26.7974Z" fill="#302B26"/>
<path d="M94.2935 36.7889C94.4254 36.8895 94.4331 36.9978 94.3167 37.1216C94.0297 35.4345 93.7426 33.7473 93.4556 32.0524C94.534 32.0911 95.6201 32.1298 96.6986 32.1762C96.1322 33.3526 95.5658 34.5367 94.9995 35.7131C94.7667 36.0691 94.5262 36.4328 94.2935 36.7889Z" fill="#706B5B"/>
<path d="M95.0616 41.5717C95.1391 43.1738 95.209 44.7758 95.2865 46.3856C95.1934 46.5481 95.0771 46.6952 94.9529 46.8345C94.4719 46.7958 93.9909 46.7494 93.5176 46.7107L93.5564 46.7416C94.053 45.0157 94.5573 43.2899 95.0616 41.5717Z" fill="#706B5B"/>
<path d="M94.9995 51.9502C94.0375 51.2304 93.0754 50.5107 92.1134 49.7909C92.3927 49.2646 92.672 48.7384 92.9513 48.2121L93.2616 48.2353L93.5642 48.1734C93.7582 48.2972 93.9754 48.3746 94.2082 48.3978C94.4952 49.5587 94.7823 50.7196 95.0693 51.8805C95.0616 51.8805 94.9995 51.9502 94.9995 51.9502Z" fill="#302B26"/>
<path d="M64.16 23.5314C62.298 23.9106 61.4524 24.3053 60.7386 24.1505C60.2033 24.0344 59.8464 23.1909 59.4042 22.6646C59.9473 22.5562 60.5214 22.2776 61.0334 22.3627C61.7782 22.4943 62.4687 22.8813 64.16 23.5314Z" fill="#302B26"/>
<path d="M86.3954 38.507C86.1161 41.7575 86.186 42.4076 85.9843 42.9494C85.7748 43.5066 85.2938 43.9709 84.9291 44.474C84.8593 44.1025 84.6653 43.7001 84.7429 43.3673C84.9291 42.5779 85.2472 41.8194 86.3954 38.507Z" fill="#706B5B"/>
<path d="M57.3327 25.6907C57.3172 25.474 57.2008 25.3656 56.9836 25.3579C57.0612 24.5684 57.131 23.7713 57.2086 22.9819C57.5577 23.9261 57.8991 24.878 58.2482 25.8222L58.062 25.8996C57.8215 25.83 57.5732 25.7603 57.3327 25.6907Z" fill="#302B26"/>
<path d="M89.5143 43.4988C89.1187 42.7404 88.8316 42.1909 88.5446 41.6414C88.7463 41.5795 89.0101 41.3937 89.1419 41.4634C89.7238 41.7575 90.2669 42.129 90.8255 42.4695C90.4841 42.7404 90.135 43.0113 89.5143 43.4988Z" fill="#706B5B"/>
<path d="M76.1001 41.5795C75.6346 40.999 75.1691 40.4263 74.7036 39.8459C75.1924 39.6756 75.6734 39.5053 76.1622 39.3351L76.1001 39.397C76.3251 39.397 76.5423 39.3506 76.7441 39.2499C76.5501 40.0084 76.3484 40.7746 76.1544 41.533L76.1001 41.5795Z" fill="#706B5B"/>
<path d="M96.6287 40.7901C96.2641 40.7049 95.8994 40.6198 95.5348 40.5347C96.1477 39.9387 96.7684 39.3428 97.389 38.7469C97.133 39.4279 96.877 40.109 96.6287 40.7901Z" fill="#706B5B"/>
<path d="M93.5642 48.1734L93.2616 48.2353L92.9513 48.2121C92.0591 48.3514 91.1669 48.4907 90.2747 48.63C91.3686 47.9954 92.4625 47.3685 93.5487 46.7339L93.5099 46.7029C93.5332 47.1982 93.5487 47.6858 93.5642 48.1734Z" fill="#706B5B"/>
<path d="M60.118 13.7721C60.3662 13.9888 60.7619 14.221 60.7309 14.3293C60.6378 14.6467 60.3662 14.9175 60.1723 15.2039C59.8852 15.0104 59.6059 14.8092 59.3188 14.6157C59.5438 14.3758 59.7688 14.1436 60.118 13.7721Z" fill="#706B5B"/>
<path d="M54.8345 16.2177C55.0129 16.7517 55.1914 17.278 55.3698 17.812C54.431 17.8507 53.4923 17.8817 52.5535 17.9204C52.7009 17.4096 52.8406 16.891 52.988 16.3803L53.1897 16.4886L53.3837 16.3648C53.6319 16.3029 53.8802 16.2487 54.1207 16.1945C54.3612 16.2023 54.594 16.21 54.8345 16.2177Z" fill="#302B26"/>
<path d="M88.9868 53.32C88.7307 54.2101 88.4747 55.1078 88.2187 55.9978C88.4747 55.1001 88.7307 54.2101 88.9868 53.32Z" fill="#302B26"/>
<path d="M63.8342 38.7933L63.8032 38.7314C64.1135 39.2422 64.4393 39.7453 64.7109 40.2715C64.7419 40.3335 64.4393 40.5502 64.2919 40.6972C64.1445 40.0626 63.9894 39.428 63.8342 38.7933Z" fill="#706B5B"/>
<path d="M82.7258 39.1493C82.9507 39.6679 83.1835 40.1941 83.4085 40.7127C83.0051 40.2638 82.6016 39.8149 82.1904 39.366C82.3611 39.2809 82.5396 39.2035 82.7258 39.1493Z" fill="#706B5B"/>
<path d="M77.613 32.718C77.5975 32.3774 77.582 32.0369 77.5665 31.6964C77.7449 31.7506 77.9234 31.8125 78.1096 31.8666C77.9466 32.153 77.7837 32.4394 77.6285 32.7257C77.6208 32.7257 77.613 32.718 77.613 32.718Z" fill="#706B5B"/>
<path d="M93.2228 40.0626C93.4012 40.2948 93.6495 40.5502 93.6107 40.6043C93.4167 40.8675 93.1452 41.0842 92.8969 41.3086C92.734 41.0996 92.3926 40.7669 92.447 40.6972C92.6332 40.4418 92.9435 40.2715 93.2228 40.0626Z" fill="#706B5B"/>
<path d="M98.8554 43.05C98.3278 42.8565 97.7925 42.6553 97.265 42.4618C97.6218 42.3999 97.9787 42.3379 98.3434 42.276C98.5063 42.5392 98.677 42.7946 98.8554 43.05Z" fill="#706B5B"/>
<path d="M73.0201 35.9298L73.0123 36.1155L73.2684 36.0304L73.0201 35.9298Z" fill="#706B5B"/>
<path d="M80.2819 39.8536C80.3362 39.9542 80.3905 40.0471 80.4448 40.1477C80.3207 40.14 80.1965 40.1245 80.0724 40.1167C80.1345 40.0239 80.2043 39.9387 80.2819 39.8536Z" fill="#706B5B"/>
<path d="M50.3967 22.386C50.1174 21.8752 49.8381 21.3721 49.5588 20.8613C49.8381 21.3721 50.1174 21.8752 50.3967 22.386Z" fill="#302B26"/>
<path d="M99.0804 39.8381C99.1502 39.5595 99.22 39.2809 99.2899 39.01C99.4062 39.3119 99.5226 39.606 99.639 39.9078L99.3442 40.0161L99.0804 39.8381Z" fill="#706B5B"/>
<path d="M54.1207 16.1945C54.3535 16.2022 54.594 16.2177 54.8267 16.2255C54.594 16.21 54.3612 16.2022 54.1207 16.1945Z" fill="#706B5B"/>
<path d="M58.062 25.8996L58.2482 25.8222C58.2714 26.0157 58.3025 26.2014 58.3257 26.3949C58.2404 26.2324 58.1473 26.0621 58.062 25.8996Z" fill="#706B5B"/>
<path d="M67.7211 29.0882L67.4806 29.3204L67.178 29.1888C67.3565 29.1656 67.5427 29.1269 67.7211 29.0882Z" fill="#302B26"/>
<path d="M52.988 16.3725C53.1199 16.3648 53.2596 16.3648 53.3915 16.357L53.1975 16.4809L52.988 16.3725Z" fill="#706B5B"/>
<path d="M44.2133 91.1189C43.74 91.0415 43.259 90.9641 42.7858 90.879C42.9254 90.6545 43.1271 90.2134 43.2047 90.2366C43.6547 90.3604 44.0737 90.5849 44.5081 90.7706C44.4073 90.8867 44.3142 91.0028 44.2133 91.1189Z" fill="#302B26"/>
<path d="M44.5004 90.7706C44.9426 91.0183 45.3848 91.2737 45.8271 91.5213C45.2917 91.382 44.7487 91.2505 44.2056 91.1112C44.3142 91.0028 44.4073 90.8867 44.5004 90.7706Z" fill="#302B26"/>
<path d="M45.8271 93.2008C45.7417 93.1621 45.6564 93.1234 45.571 93.0847C45.6409 93.1389 45.7107 93.193 45.7883 93.2472L45.8271 93.2008Z" fill="#302B26"/>
<path d="M45.7883 93.2472C45.8814 93.2782 45.9667 93.3014 46.0598 93.3323C45.9822 93.2859 45.9046 93.2472 45.8348 93.2008C45.8271 93.2008 45.7883 93.2472 45.7883 93.2472Z" fill="#302B26"/>
<path d="M19.9684 26.2247C20.2633 26.4336 20.6434 26.6968 21.0158 26.9599C20.7675 27.076 20.4495 27.3546 20.2865 27.285C19.8521 27.107 19.4797 26.7742 19.084 26.5033C19.309 26.4259 19.534 26.3562 19.9684 26.2247Z" fill="#302B26"/>
<path d="M17.0203 29.7615C17.2065 30.2723 17.3927 30.7831 17.5789 31.2939C17.1522 31.201 16.7332 31.1004 16.3065 31.0076C16.547 30.5896 16.7953 30.1717 17.0358 29.7461L17.0203 29.7615Z" fill="#302B26"/>
<path d="M16.5005 33.3139C16.035 33.5151 15.7091 33.7628 15.4143 33.7395C15.1738 33.7163 14.8324 33.3758 14.7936 33.1359C14.7548 32.9037 15.0574 32.6251 15.2048 32.3697C15.4841 32.5709 15.7634 32.7799 16.5005 33.3139Z" fill="#302B26"/>
<path d="M21.5589 21.6198C21.3882 21.999 21.2176 22.386 21.0469 22.7652C20.9072 22.6955 20.7676 22.6336 20.6357 22.564C20.9538 22.2621 21.2719 21.9526 21.59 21.6507C21.5822 21.6507 21.5589 21.6198 21.5589 21.6198Z" fill="#302B26"/>
<path d="M17.0358 29.7461C16.7333 29.3978 16.4307 29.0495 16.1359 28.6935C16.2445 28.6471 16.3453 28.5929 16.454 28.5465C16.6479 28.9489 16.8341 29.3514 17.0281 29.7538C17.0203 29.7615 17.0358 29.7461 17.0358 29.7461Z" fill="#302B26"/>
<path d="M19.9142 29.7306C19.7357 29.7383 19.4409 29.7615 19.4176 29.6996C19.3556 29.4907 19.3866 29.2585 19.3866 29.034C19.565 29.034 19.7435 29.034 19.9219 29.0263C19.9219 29.2507 19.9219 29.4752 19.9142 29.7306Z" fill="#302B26"/>
<path d="M21.5899 21.0006C22.0322 21.4108 22.4744 21.8133 22.9166 22.2234C22.4589 22.0222 22.0089 21.821 21.5511 21.6198C21.5511 21.6198 21.5822 21.6507 21.5744 21.6507C21.6132 21.434 21.6132 21.2173 21.5899 21.0006Z" fill="#302B26"/>
<path d="M27.1837 25.0173C27.0906 25.0793 26.9975 25.1334 26.9044 25.1953C26.8346 25.0715 26.7648 24.9399 26.6949 24.8161C26.8113 24.7929 26.9355 24.7387 27.0286 24.7697C27.1061 24.7852 27.1372 24.9322 27.1837 25.0173Z" fill="#302B26"/>
<path d="M95.0616 51.8805C94.7745 50.7196 94.4874 49.5587 94.2004 48.3978C94.4486 47.8716 94.6969 47.353 94.9452 46.8267C95.0693 46.6874 95.1857 46.5404 95.2788 46.3779C96.2098 45.7974 97.133 45.2247 98.064 44.652L98.1959 44.4972C98.4054 44.0096 98.6149 43.5143 98.8244 43.0267C100.461 47.1441 100.842 50.7583 95.0616 51.8805Z" fill="#706B5B"/>
<path d="M94.2935 36.7888C94.534 36.4328 94.7667 36.0691 95.0072 35.7131C94.7667 36.0691 94.5262 36.4328 94.2935 36.7888Z" fill="#A5A296"/>
<path d="M34.5619 77.9001C35.2912 77.637 36.0205 77.3661 36.7576 77.103C37.6808 77.2036 38.6118 77.3042 39.535 77.3971C37.836 77.7608 36.1291 78.1246 34.4301 78.4806C34.4999 78.3026 34.5464 78.1013 34.5619 77.9001Z" fill="#302B26"/>
<path d="M40.5514 80.0671C39.8376 80.0052 39.3798 80.0362 38.9842 79.8969C38.798 79.8272 38.7281 79.4325 38.604 79.1849C39.0617 79.0765 39.5195 78.883 39.9695 78.9062C40.1324 78.914 40.2565 79.4557 40.5514 80.0671Z" fill="#302B26"/>
<path d="M32.3663 78.5967C33.0723 78.5425 33.7784 78.4961 34.4844 78.4419C33.7784 78.4961 33.0723 78.5502 32.3663 78.5967Z" fill="#302B26"/>
<path d="M54.1362 82.149C53.9035 82.4276 53.6707 82.6985 53.438 82.9771C53.3526 82.8997 53.275 82.8223 53.1897 82.7449C53.5078 82.5515 53.8259 82.358 54.144 82.1645L54.1362 82.149Z" fill="#302B26"/>
<path d="M54.1517 82.1645C54.2061 82.0639 54.2604 81.9633 54.3147 81.8627C54.2526 81.9633 54.1983 82.0561 54.1362 82.1568C54.1362 82.149 54.1517 82.1645 54.1517 82.1645Z" fill="#302B26"/>
<path d="M66.216 35.6512C65.3471 35.1791 64.4781 34.707 63.6092 34.2349C64.9514 33.9872 66.2936 33.7318 67.628 33.4842C67.1548 34.2039 66.6815 34.9314 66.216 35.6512Z" fill="#A5A296"/>
<path d="M64.7264 30.5122C64.1988 30.7212 63.935 30.8992 63.6635 30.907C63.4851 30.907 63.3144 30.6516 63.1359 30.5045C63.3221 30.311 63.5083 29.9705 63.7023 29.9705C63.9583 29.9628 64.2221 30.2259 64.7264 30.5122Z" fill="#302B26"/>
<path d="M61.4601 32.1685C61.6618 32.2381 61.8558 32.3078 62.042 32.3852C61.9256 32.5632 61.848 32.7954 61.6851 32.9037C61.6075 32.9579 61.3748 32.7954 61.2041 32.7257C61.2894 32.5477 61.367 32.362 61.4601 32.1685Z" fill="#302B26"/>
<path d="M56.4327 36.3864C56.1224 36.3013 55.812 36.2239 55.5017 36.1387C55.5638 36.0536 55.6258 35.9685 55.6879 35.8833C55.9284 36.0614 56.1689 36.2394 56.4094 36.4174C56.4094 36.4096 56.4327 36.3864 56.4327 36.3864Z" fill="#302B26"/>
<path d="M64.2764 32.3465C64.1833 32.4007 64.0902 32.4548 64.0049 32.509C63.9351 32.3929 63.8575 32.2691 63.7877 32.153C63.8963 32.1375 64.0204 32.0833 64.1135 32.1143C64.1911 32.1375 64.2221 32.2613 64.2764 32.3465Z" fill="#302B26"/>
<path d="M77.4967 62.0345C77.8923 62.4757 78.288 62.9168 78.6837 63.3579C77.9544 63.7449 77.2251 64.1241 76.5036 64.5111C76.3717 63.8765 76.2321 63.2419 76.1002 62.6072C76.5579 62.4138 77.0312 62.228 77.4967 62.0345Z" fill="#302B26"/>
<path d="M77.4967 62.0345C77.0312 62.2203 76.5657 62.4137 76.0924 62.5995C76.6122 62.2203 77.132 61.841 77.6518 61.4618V61.4695C77.5432 61.6476 77.4889 61.8333 77.4967 62.0345Z" fill="#A5A296"/>
<path d="M72.2753 62.2048C72.5235 61.9417 72.764 61.6785 73.0123 61.4154C72.7718 61.6785 72.5235 61.9417 72.2753 62.2048Z" fill="#302B26"/>
<path d="M47.1925 18.5086C46.4787 18.6014 45.765 18.6943 45.0512 18.7949C45.765 18.7021 46.4787 18.6014 47.1925 18.5086Z" fill="#A5A296"/>
<path d="M45.0434 28.2911C44.6167 28.0047 44.19 27.7106 43.7556 27.4243C43.9185 27.285 44.0814 27.1379 44.2366 26.9986C44.5081 27.4243 44.7874 27.8499 45.059 28.2756C45.0667 28.2679 45.0434 28.2911 45.0434 28.2911Z" fill="#302B26"/>
<path d="M46.7581 21.1399C46.5176 20.9078 46.2848 20.6833 46.0443 20.4511C46.9753 20.575 47.9063 20.7065 48.8373 20.8304C48.783 21.4031 48.7287 21.9758 48.6666 22.5485C48.0382 22.0841 47.3943 21.612 46.7581 21.1399Z" fill="#A5A296"/>
<path d="M61.5998 37.23C61.4213 37.3306 61.2119 37.5241 61.0877 37.4776C60.9015 37.4157 60.7852 37.1835 60.6378 37.0288C60.8705 36.8972 61.0955 36.7656 61.3282 36.634C61.4213 36.8275 61.5144 37.021 61.5998 37.23Z" fill="#706B5B"/>
<path d="M98.0718 44.652C97.3968 44.5359 96.7218 44.4276 96.0546 44.3115C96.1865 44.1412 96.3727 43.8007 96.4425 43.8239C97.0399 44.0096 97.6218 44.2573 98.2037 44.4895C98.1959 44.4972 98.0718 44.652 98.0718 44.652Z" fill="#A5A296"/>
<path d="M94.9529 46.8267C94.7047 47.353 94.4564 47.8716 94.2081 48.3978C93.9754 48.3746 93.7581 48.2972 93.5642 48.1734C93.5487 47.6858 93.5332 47.1905 93.5176 46.7029C93.9909 46.7494 94.4719 46.788 94.9529 46.8267Z" fill="#A5A296"/>
</g>
<defs>
<clipPath id="clip0_17_269">
<rect width="104.722" height="97.5" fill="white" transform="matrix(1 0 0 -1 0.277771 98.2778)"/>
</clipPath>
</defs>
</svg>
