<svg id="Lager_1" data-name="Lager 1" xmlns="http://www.w3.org/2000/svg" xmlns:xlink="http://www.w3.org/1999/xlink" viewBox="0 0 397.55 144.14"><defs><style>.cls-1{fill:#f9cc05;}</style><symbol id="Logo" data-name="Logo" viewBox="0 0 397.55 144.14"><path class="cls-1" d="M219.55,112.05c.19.49.21.69.31.78,5.4,4.9,8.74,10.59,6.21,18.1-2.6,7.74-8.94,10.9-16.37,12-13.23,2-26.56.77-39.86.71a10.67,10.67,0,0,1-2.79-.77V84.55c3.75-1.17,7.45-.94,11-.93,9.64,0,19.3.14,28.93.62,10.16.51,17.07,6.7,17.91,15.44C225.43,104.69,224.58,106.67,219.55,112.05ZM185.69,130.2c5.64,0,10.91,0,16.17,0,3.12,0,5.79-.58,6.16-4.27a5.66,5.66,0,0,0-5.37-6.59c-5.54-.52-11.17-.14-17-.14Zm.61-23.39c4.94,0,9.92.11,14.9,0,2.48-.07,4.59-1.16,5-4,.33-2.35-.92-4.13-3.08-4.42-5.71-.76-11.48-1.91-17.16,0C185.28,101,184.81,103.4,186.3,106.81Z"/><path class="cls-1" d="M168.74,52.6c5.49,7.27,11.07,14,17.75,21.31H164.71c-5.43-5.41-9.65-12.66-15.09-18.73-2.18-.27-4.14-.8-6.22.15-2.07,6.08,1.2,12.43-.49,18.78H124.29v-60c10.43,0,20.34-.05,30.25,0,4.3,0,8.59.05,12.79,1.53,9.07,3.19,14.87,10,15.23,18.33S178.62,48.24,168.74,52.6ZM143.31,28.23V42c6.58,0,12.67,1.2,18.34-1.29,4.08-7.48,1.57-12.34-6.41-13A51.38,51.38,0,0,0,143.31,28.23Z"/><path class="cls-1" d="M289.84,84.8c1.67-1.73,3.21-1.61,4.7-1.58,11,.23,21.94.15,32.88.83,11.93.74,22.42,10.54,20.31,23.31-1.24,7.54-6.2,11.77-13.37,14.64,5.1,7.44,11.12,13.76,17.31,21.3-7.5,1.36-14.19,0-20.62.84-6.26-6-10.36-13.41-16-19.51a14.09,14.09,0,0,0-6-.35c-1.66,6.45.6,12.81-.77,19.69-6.06-.43-12.11.55-18.48-.5Zm18.91,26.09c5,1.18,9.46.79,13.92.48,3.86-.27,6.3-2,6.37-6.07s-1.21-7.31-5.77-7.88a46.1,46.1,0,0,0-14.52.29Z"/><path class="cls-1" d="M250.19,120.34a19,19,0,0,0-.17,9.2h33.42c1.75,4.94.86,9.15.22,14h-52.3V83.78h51.29V98.05h-32.3c-1.11,3-.83,5.42-.44,8.37,10,1.58,20.07-.67,30.56.2.45,4.55,1.35,8.86.12,13.72Z"/><path class="cls-1" d="M62.33,14.38H80.9c1.41,8,.06,16,.8,24.29,5.15,4.86,11.58,1.28,17.78,2.67V14.69h18.58c1.14,6.1.47,12.39.48,18.65,0,8.81.47,17.62-.38,26.41C117.4,67.67,113.06,73,105.24,74c-13.39,1.81-26.85.93-40.45.45a69,69,0,0,1,.29-13.64c8.85-1.2,17.66-.28,26.42-.65,4.57-.19,5.08-.48,6.94-5.18-3.69-1.28-7.48-.54-11.16-.61C82.1,54.3,77,54.22,72.07,52.22c-7.48-3-10.26-8-9.82-15.94C62.64,29.18,62.33,22,62.33,14.38Z"/><path class="cls-1" d="M159.85,83.83c1.07,4.8.23,9.19.56,14H128.26c-1.95,2.82-1.69,5.38-.87,8.52,9.9,1.65,20-.68,30.15.18,1.78,4.46,1,8.74.93,13.59H128.08c-1.51,3.07-1.52,5.69-1.12,8.85,11.28,1.43,22.76-.58,34.19.84,1,4.62.6,8.84,0,13.68h-52.4V83.83Z"/><path class="cls-1" d="M206.75,74.37H187.63V14.27c6.37,1.1,12.41-1,18.82.82a117.4,117.4,0,0,0,.3,18.3c3.77-4.16,7.31-7.14,9.65-10.88,4.63-7.37,10.92-9.44,19.12-8.09,3.2.53,6.56.09,11.09.09-9.25,10.41-17.76,19.77-27.45,29.29l29.62,30.48H224.6L206.75,55.23Z"/><path class="cls-1" d="M397.55,74.4H373.08c-5.7-6.07-11.43-12.19-18.09-19.3V73.9c-6.5,1.58-12.58-.18-19,1V14.29c6.4,1.07,12.42-1,18.87.84V32l1.1.62c3-3.36,6.49-6.39,8.87-10.13,4.67-7.33,11-9.41,19.19-8,3.19.53,6.54.08,11,.08C385.65,25,377.09,34.41,367.69,43.65,377,54,386.71,63.68,397.55,74.4Z"/><path class="cls-1" d="M64.9,127.25c-.27,6.11-.48,10.88-.71,16.16a66.4,66.4,0,0,1-18.46-.08c-.08-19.8-.55-39.31.13-58.74,3.53-1.27,6.73-.72,9.85-.74,9,0,18,0,27,.17C97,84.33,108,98.73,103.75,112.07c-3.17,10.05-11.38,13.94-21,15.06C77.08,127.79,71.22,127.25,64.9,127.25ZM65,112.73c5,1.28,9.8.81,14.52.08,3.68-.57,5.81-3.15,5.88-7s-2-6.19-5.74-7c-4.9-1-9.79-.55-14.89-.42C64.13,103.51,64.74,108.07,65,112.73Z"/><path class="cls-1" d="M328,19.86a32.17,32.17,0,0,1-8.55,10.78c-15.38-5.22-21.67-5-24.81,1,1.19,4,4.61,4.17,7.95,4.38a56.79,56.79,0,0,1,18.33,4.35c6.5,2.7,11.4,7.26,11.59,14.83S329.09,68.8,322.06,72c-12.49,5.64-36.15,7.49-47.92-7l9.63-10.21c7.75,6,16.32,7.7,25.56,5.87,2.12-.42,2.7-1.28,4.33-4.49-1.13-4.49-4.94-4.78-8.58-5A66.2,66.2,0,0,1,283.94,46c-10.59-4.45-9.61-23.14-.75-28.1a40.45,40.45,0,0,1,19.08-5C311.32,12.7,320,14.43,328,19.86Z"/><path class="cls-1" d="M19.32,74.28c.66-15.24.36-30-.21-44.93-6.25-1.07-12.43.34-18.68-1A60.79,60.79,0,0,1,.33,14.9H57.4c.87,4.76.16,9.13.13,14H38.59c-.59,15.45-1,30.44-.26,46.22C32,74.46,26,75.58,19.32,74.28Z"/><path class="cls-1" d="M252.17,30.18h18.1c.56,14.71.5,29.23-.13,44-6.07.66-11.66.23-18,0Z"/><path class="cls-1" d="M259.74,8.19c2.32-.7,1.91-2.81,2.27-4.49,4.89,1.59.18,6,2.68,8.77l2.9-4.05c4.47,11.4,4.58,12.68,1.4,15.51s-9.73,3.4-13.6,1.06-4-3.77-1.29-16.18c3.21,1,.24,4.8,3,6.28l2.71-6.95Z"/><path class="cls-1" d="M374.24,108.28c-9.51,0-16.72-5.53-16.64-12.82.07-7.14,7-12.55,16.31-12.69,9.46-.14,16.76,5.32,16.84,12.6S383.81,108.27,374.24,108.28ZM366.78,103c4.63,3.65,10.1,3.66,14.87,0,4.76-2.36,6.4-6.66,4.25-11.16-3.21-6.74-13.26-8.68-19.15-3.7-3.83,1-5,4-5,7.41S363,102,366.78,103Z"/><path class="cls-1" d="M259.79,8.14C257.9,5.76,253.28,4.63,256,0c3,2,2.12,5.68,3.76,8.19Z"/><path class="cls-1" d="M366.6,103.17q0-7.56,0-15.12c3.31,0,6.62,0,9.92.08a4.41,4.41,0,0,1,4.36,2.71c.84,2.11-.23,3.46-2.11,4.71,1.88,2.16,1.83,5.09,3,7.6h-4.41c-.61-1.85-1.11-3.38-1.53-4.63a4.12,4.12,0,0,0-4.91-1v4.64C369.55,103.81,368,103,366.6,103.17Zm4.46-12.55c-.29,1.38-.66,2.5.28,3.63,2,.09,4.18.84,5.57-1.91C375.57,90.15,373.6,90.07,371.06,90.62Z"/></symbol></defs><use width="397.55" height="144.14" xlink:href="#Logo"/></svg>